<?xml version="1.0" standalone="no"?>
<!DOCTYPE svg PUBLIC "-//W3C//DTD SVG 20010904//EN"
 "http://www.w3.org/TR/2001/REC-SVG-20010904/DTD/svg10.dtd">
<svg version="1.0" xmlns="http://www.w3.org/2000/svg"
 width="2016.000000pt" height="2144.000000pt" viewBox="0 0 2016.000000 2144.000000"
 preserveAspectRatio="xMidYMid meet">

<g transform="translate(0.000000,2144.000000) scale(0.100000,-0.100000)"
fill="#000000" stroke="none">
<path d="M5137 18210 c-45 -28 -47 -45 -47 -483 0 -402 1 -415 20 -440 12 -14
70 -52 130 -83 l110 -57 0 -532 c0 -314 4 -554 10 -585 21 -110 97 -206 195
-246 l45 -19 0 -87 c0 -120 25 -184 100 -259 31 -31 75 -66 98 -78 102 -52
172 -150 172 -242 0 -181 -146 -301 -319 -259 -102 24 -174 103 -193 211 -12
70 -37 105 -82 118 -96 26 -159 -47 -141 -164 10 -72 78 -195 141 -258 185
-184 490 -182 677 4 99 100 143 224 135 381 -5 73 -11 99 -40 160 -47 98 -101
155 -209 224 -105 66 -119 88 -119 188 l0 64 46 16 c71 24 128 77 166 154 l33
67 3 386 3 386 117 -61 c64 -35 342 -176 617 -316 275 -139 658 -334 850 -433
193 -99 550 -282 795 -407 245 -125 738 -377 1095 -560 1120 -574 1265 -647
1265 -641 0 3 -5 22 -10 41 -6 19 -15 77 -21 129 -25 220 38 471 162 653 22
33 38 66 36 73 -8 19 -61 46 -942 495 -445 227 -877 447 -960 490 -82 43 -512
262 -955 488 -1094 556 -1740 886 -2210 1127 -765 392 -734 378 -773 355z
m672 -613 c47 -32 71 -80 71 -147 0 -62 -18 -100 -65 -136 -135 -103 -321 42
-260 202 17 45 66 93 107 106 41 13 107 1 147 -25z"/>
<path d="M11625 15456 c-265 -60 -477 -234 -594 -488 -52 -112 -71 -202 -71
-341 0 -264 120 -517 316 -666 80 -60 220 -130 314 -157 89 -26 317 -26 409
-1 157 43 259 99 372 205 257 240 338 605 208 932 -98 245 -298 428 -549 500
-96 28 -315 37 -405 16z m306 -366 c295 -91 428 -412 289 -696 -84 -171 -297
-277 -492 -245 -384 63 -542 526 -276 807 130 138 308 187 479 134z"/>
<path d="M11352 11844 l3 -1849 443 -3 c416 -2 442 -1 444 15 5 50 2 3683 -3
3683 -4 0 -27 -9 -51 -20 -25 -11 -94 -32 -154 -46 -189 -46 -388 -36 -577 31
-40 14 -80 28 -90 32 -16 5 -17 -85 -15 -1843z"/>
<path d="M13975 12892 c-77 -26 -135 -65 -193 -126 -62 -65 -96 -135 -112
-226 -8 -46 -10 -750 -8 -2435 3 -2220 4 -2373 20 -2421 42 -121 135 -220 251
-267 47 -19 76 -22 295 -25 159 -2 242 0 242 7 0 5 -8 40 -17 78 -21 85 -23
321 -4 408 89 402 383 694 781 777 119 25 311 20 435 -11 179 -45 345 -139
471 -267 l73 -75 360 3 c330 3 362 4 378 21 15 15 19 42 23 188 5 158 7 172
26 188 18 15 54 17 275 19 140 2 262 5 272 8 40 12 41 23 38 704 -3 653 -3
655 -27 746 -13 51 -35 117 -48 148 -13 30 -181 311 -373 623 -465 757 -681
1110 -854 1396 -79 132 -168 268 -197 303 -63 77 -150 144 -247 190 -133 64
-126 64 -1010 63 -733 0 -804 -1 -850 -17z m1661 -357 c73 -21 135 -67 185
-135 35 -48 449 -724 1015 -1654 56 -93 59 -111 26 -148 -14 -17 -86 -18
-1249 -18 -1208 0 -1233 0 -1252 19 -11 11 -23 35 -26 53 -3 18 -4 444 -3 946
l3 914 24 19 c22 18 47 19 625 19 502 0 611 -2 652 -15z"/>
<path d="M10923 9803 c-12 -2 -33 -16 -47 -30 l-26 -26 0 -403 0 -404 -3460 0
-3460 0 0 200 c0 200 0 201 -25 225 l-24 25 -386 0 c-243 0 -393 -4 -405 -10
-11 -6 -24 -27 -29 -48 -6 -23 -9 -269 -6 -652 3 -600 4 -616 25 -672 28 -75
96 -150 167 -185 50 -24 71 -28 179 -31 138 -5 123 -14 144 91 87 440 465 767
915 794 269 16 536 -88 736 -287 148 -147 232 -300 281 -512 13 -54 25 -98 28
-98 3 0 17 48 31 108 53 218 145 380 298 524 125 118 259 191 439 240 62 17
105 21 227 21 130 0 163 -3 246 -25 337 -91 588 -332 693 -667 15 -46 30 -107
34 -135 l7 -51 1798 -3 1797 -2 0 -156 c0 -171 10 -212 56 -233 18 -8 172 -11
524 -11 l499 0 28 24 28 24 5 174 5 173 610 5 c336 3 611 6 612 8 22 25 24
1102 2 1128 -9 11 -76 14 -345 14 l-334 0 0 390 c0 335 -2 395 -16 421 -31 61
0 59 -956 58 -480 -1 -883 -4 -895 -6z"/>
<path d="M4431 8510 c-279 -39 -518 -212 -641 -465 -55 -114 -71 -181 -77
-330 -6 -144 12 -248 60 -357 79 -179 245 -345 422 -424 150 -66 367 -84 535
-44 293 71 522 296 601 591 34 126 32 310 -5 434 -71 235 -226 419 -441 521
-50 24 -120 50 -155 58 -86 20 -220 27 -299 16z m171 -441 c120 -25 224 -107
277 -219 23 -49 26 -67 26 -165 0 -102 -2 -114 -29 -167 -83 -165 -262 -248
-436 -204 -118 31 -199 99 -254 216 -28 58 -31 74 -31 160 0 86 3 101 31 160
54 112 152 190 274 216 71 16 79 16 142 3z"/>
<path d="M4485 7901 c-105 -26 -169 -107 -170 -217 0 -84 38 -146 115 -187 47
-25 63 -28 112 -24 154 13 246 153 194 292 -22 57 -92 119 -151 134 -48 12
-56 12 -100 2z"/>
<path d="M6388 8504 c-363 -65 -640 -363 -677 -727 -27 -264 58 -499 245 -678
88 -83 148 -124 244 -165 127 -53 211 -67 369 -62 117 5 148 10 223 35 228 79
423 263 506 480 118 306 44 661 -186 891 -189 189 -461 274 -724 226z m214
-435 c203 -43 342 -241 308 -437 -16 -94 -41 -144 -105 -211 -79 -83 -152
-115 -265 -116 -142 0 -243 52 -321 165 -172 250 2 594 308 609 12 1 46 -4 75
-10z"/>
<path d="M6490 7901 c-177 -36 -237 -248 -105 -370 98 -91 251 -74 329 36 34
50 45 129 26 189 -33 99 -147 166 -250 145z"/>
<path d="M15255 8495 c-152 -33 -282 -103 -397 -213 -184 -176 -270 -396 -255
-651 18 -299 203 -570 473 -692 161 -73 377 -90 556 -45 242 61 417 204 532
433 154 308 93 682 -152 936 -152 158 -368 248 -591 246 -58 0 -133 -7 -166
-14z m237 -426 c302 -63 417 -439 200 -656 -204 -203 -547 -116 -633 160 -76
244 101 493 358 506 12 1 46 -4 75 -10z"/>
<path d="M15368 7896 c-101 -27 -162 -106 -163 -212 -1 -226 315 -296 414 -91
79 164 -75 350 -251 303z"/>
<path d="M16373 8118 c79 -180 101 -294 94 -478 -3 -74 -13 -160 -21 -190 -9
-30 -16 -58 -16 -62 0 -5 260 -8 577 -8 556 0 578 1 618 20 26 13 49 34 63 59
21 37 22 50 22 310 0 224 -3 277 -15 301 -32 62 -13 60 -701 60 -497 0 -625
-3 -621 -12z"/>
</g>
</svg>
