<?xml version="1.0" encoding="utf-8" ?><svg xmlns="http://www.w3.org/2000/svg" xmlns:xlink="http://www.w3.org/1999/xlink" width="1024" height="1024" viewBox="0 0 1024 1024"><path d="M650.231 518.44C650.908 504.404 650.243 490.167 650.342 476.106C650.391 469.205 650.637 461.484 656.065 456.416C658.145 454.474 660.978 452.815 663.518 451.57C671.739 447.538 730.136 423.842 736.615 424.158C740.859 424.365 745.624 425.856 748.618 428.989C749.824 434.782 754.029 438.388 754.368 444.497C754.793 452.162 754.623 459.853 754.587 467.531L754.395 511.851L754.535 665.097C754.554 668.978 753.927 689.477 754.764 691.393L755.318 691.586C755.501 691.986 755.685 692.387 755.868 692.788C773.452 701.766 800.468 714.457 817.284 722.466L879.299 752.375C885.444 755.351 907.178 764.942 911.075 768.854C930.602 788.459 896.245 815.002 879.608 821.611C839.694 838.386 800.512 814.003 765.4 796.635L716.572 772.857C703.859 766.811 691.186 760.682 678.552 754.471C646.857 739.032 650.449 741.449 650.409 705.787L650.407 660.382C650.415 652.47 650.767 641.92 650.111 634.33C640.924 638.034 630.38 642.685 621.212 645.974C620.719 663.812 621.437 685.669 621.465 703.866L621.432 732.779C621.393 737.472 621.084 743.646 621.275 748.219L739.743 805.397C751.305 811.094 764.915 816.687 775.871 823.227C779.52 825.405 781.457 830.06 782.784 833.977L783.092 834.891C781.858 838.075 782.845 839.719 781.779 843.314C779.435 851.218 770.456 860.403 764.379 866.043C764.388 866.264 764.717 866.505 764.897 866.683C758.343 874.172 746.13 879.562 736.73 882.422C704.257 892.303 679.556 876.454 651.383 862.775C628.154 851.707 605.034 840.411 582.027 828.89C564.38 820.083 546.511 811.32 528.735 802.741C523.835 800.377 520.438 795.436 519.057 790.191C520.445 785.72 519.528 726.247 519.528 718.281L519.51 575.826C519.499 555.848 519.844 535.098 519.585 515.222C520.513 510.954 524.306 506.284 528.3 504.487C549.445 494.754 571.392 486.61 592.907 477.757C603.104 473.562 618.904 478.613 619.893 489.826C619.703 493.036 620.243 494.296 620.27 497.36C620.336 504.754 620.428 512.105 620.274 519.501C620.236 521.324 619.524 527.071 621.071 527.467L621.609 530.565L622.023 530.841C631.441 526.813 640.856 522.581 650.231 518.44ZM688.086 483.584C687.274 508.56 687.989 533.641 687.798 558.638C687.496 593.04 687.482 627.444 687.757 661.847C687.764 679.36 687.357 698.184 687.597 715.523C691.582 718.233 701.708 722.597 706.715 725.005L745.321 743.556C762.543 751.81 779.711 760.192 797.125 768.058C808.603 773.243 822.698 781.48 834.382 785.612C844.319 788.896 850.608 789.933 860.893 787.257C852.911 781.291 832.01 772.586 822.18 767.876L754.546 735.019C742.418 729.249 719.817 722.363 717.492 707.642C716.612 702.066 716.964 693.956 717.025 688.205L717.46 656.8C717.612 640.013 717.256 623.124 717.232 606.325C717.392 578.352 717.369 550.378 717.163 522.405C717.061 511.838 717.013 501.271 717.02 490.704C717.033 487.077 717.325 475.831 716.823 472.748L716.11 472.509C707.557 475.388 696.193 479.639 688.086 483.584ZM649.414 559.075C639.774 562.703 630.98 568.118 621.474 571.967C621.46 575.373 620.792 601.86 622.061 602.933L624.99 601.843C633.057 598.753 642.494 595.066 650.447 591.825C650.375 587.569 650.923 560.151 649.414 559.075ZM557.272 761.367C557.21 765.418 557.285 769.47 557.496 773.516C592.821 791.206 628.347 808.493 664.067 825.372C677.846 831.999 693.862 841.19 708.217 845.694C714.874 847.782 723.421 845.811 730.016 844.02C724.475 839.807 699.699 828.426 692.16 824.802L617.007 788.633C612.416 786.429 607.122 783.793 602.739 781.775C590.142 775.976 582.622 772.174 583.404 756.765C583.644 752.046 583.435 744.787 583.45 739.762L583.466 697.793L583.475 585.651C583.494 565.494 583.834 544.369 583.397 524.273C574.393 526.948 565.935 530.838 557.298 534.513C556.086 536.271 556.296 536.281 556.29 538.88C556.263 551.884 556.324 564.927 556.327 577.933L556.44 670L556.28 724.363C556.239 735.44 555.905 749.953 556.891 760.833L557.272 761.367Z"/><path d="M557.272 761.367L556.891 760.833C555.905 749.953 556.239 735.44 556.28 724.363L556.44 670L556.327 577.933C556.324 564.927 556.263 551.884 556.29 538.88C556.296 536.281 556.086 536.271 557.298 534.513C558.069 562.472 557.493 592.558 557.498 620.709L557.272 761.367Z"/><path d="M265.291 372.16C266.918 357.727 267.888 342.66 269.275 328.164L279.902 218.819C281.69 200.549 282.819 182.257 284.947 164.022C285.898 155.871 290.012 150.309 298.145 147.924C307.06 145.31 316.349 143.338 325.404 141.204L383.458 128.005C397.613 124.648 411.789 121.376 425.983 118.19C431.154 117.004 449.694 112.197 454.008 112.962C462.536 114.474 482.85 125.12 491.214 129.115L529.588 147.044C541.963 152.756 554.292 158.567 566.574 164.475C572.731 167.411 580.664 170.838 586.377 174.172C599.167 181.476 610.981 190.371 621.536 200.644C645.787 224.234 662.66 254.362 670.104 287.364C671.867 294.829 673.993 305.764 674.042 313.318C673.352 319.882 674.259 331.832 674.328 339.155L674.613 397.771C674.606 400.79 674.01 409.589 674.863 411.716C674.052 418.079 668.783 423.316 662.958 425.493C657.877 427.426 652.227 427.204 647.312 424.879C642.252 422.437 638.554 417.853 637.237 412.391C635.836 406.665 636.426 391.412 636.432 384.775L636.399 348.056C636.36 324.101 636.792 305.929 628.648 282.672C617.388 250.635 595.022 223.692 565.605 206.727C554.744 200.57 536.451 192.973 524.517 187.372L450.752 152.934C436.552 155.285 421.783 158.932 407.777 162.222L360.152 173.251C367.128 177.219 376.022 181.116 383.361 184.508C422.497 202.597 453.559 211.552 482.99 245.369C493.394 257.245 501.983 270.595 508.478 284.986C523.041 316.71 523.854 335.843 523.882 369.715L523.912 409.61L523.978 455.351C523.988 463.769 523.938 472.053 523.777 480.473C523.549 492.405 510.281 500.395 499.379 497.815C484.211 494.225 468.875 487.286 454.058 481.901L318.356 431.638C300.233 425.024 268.82 411.781 251.227 409.822C234.563 408.116 217.909 413.133 204.96 423.758C187.165 438.319 176.491 460.626 175.325 483.432C174.643 490.294 176.009 497.146 175.287 503.997C173.297 522.861 150.564 527.685 140.063 512.495C138.515 510.254 137.087 506.962 136.73 504.261C136.053 499.143 136.445 493.534 136.343 488.359C136.182 480.177 136.758 472.11 138.113 464.052C143.058 434.162 159.76 407.494 184.494 389.997C208.818 372.762 236.115 367.15 265.291 372.16ZM303.731 384.949C308.638 387.674 315.554 389.981 320.919 391.989L346.518 401.576L437.412 435.393C450.23 440.2 462.729 444.314 475.378 449.662C478.862 451.012 483.428 452.932 486.923 453.96C487.503 447.993 487.201 439.946 487.176 433.752L487.069 401.996L487.058 369.172C487.088 342.27 486.831 327.009 474.744 301.551C470.016 291.598 464.127 282.241 457.198 273.674C435.472 247.153 410.053 237.773 379.795 224.35C360.379 215.736 341.395 205.6 321.432 198.206C319.643 204.863 318.048 225.291 317.413 232.98C316.135 250.006 314.681 267.019 313.052 284.016L307.297 346.197C306.189 356.999 303.887 374.256 303.731 384.949Z"/><path d="M418.757 558.719C445.001 557.239 473.311 570.861 492.835 587.813C494.918 589.621 497.129 591.913 498.699 594.182C501.919 598.871 503.033 604.693 501.77 610.24C500.77 614.689 497.586 619.29 493.555 621.503C476.982 630.6 470.247 617.796 458.148 609.432C451.117 604.571 443.859 600.843 435.827 598.953C424.229 596.151 408.059 597.484 397.953 604.454C362.55 628.869 363.373 685.29 384.904 718.423C399.55 740.963 419.5 754.303 445.069 759.836C452.878 761.001 463.653 759.765 470.013 764.676C484.537 775.89 478.305 798.776 459.243 799.59C430.564 800.814 401.282 788.24 379.567 770.026C328.464 727.275 311.653 641.902 356.738 588.981C372.351 570.655 394.74 560.393 418.757 558.719Z"/><path d="M273.835 723.039C272.508 731.095 263.027 735.86 255.519 735.752C231.458 735.406 205.005 722.974 187.724 706.553C164.504 684.806 150.886 654.718 149.871 622.92C149.192 594.043 156.246 568.171 176.789 546.877C192.137 531.027 213.156 521.93 235.216 521.59C268.473 521.061 298.69 538.382 318.14 564.94C322.573 570.993 327.592 577.98 327.551 585.832C327.497 591.01 325.276 595.927 321.428 599.391C317.352 603.12 312.01 604.7 306.443 604.53C292.849 604.114 290.051 590.569 280.762 581.309C268.695 569.279 254.644 560.504 237.154 559.85C226.559 559.697 213.884 564.858 206.629 572.503C169.095 612.056 192.376 677.28 241.468 693.971C247.867 696.147 263.638 697.614 267.18 701.184C267.245 702.391 269.102 704.684 269.957 705.814C274.593 711.937 272.545 716.962 273.835 723.039Z"/><path d="M519.057 790.191C517.733 786.37 518.212 751.217 518.188 745.476L518.269 596.104C518.34 571.96 518.068 547.765 518.222 523.625C518.241 520.62 518.363 518.002 519.585 515.222C519.844 535.098 519.499 555.848 519.51 575.826L519.528 718.281C519.528 726.247 520.445 785.72 519.057 790.191Z"/><path d="M748.618 428.989C752.334 432.029 755.239 437.823 755.41 442.475C755.876 455.172 755.596 468.451 755.589 481.178L755.582 561.085L755.579 646.41C755.597 657.916 756.29 681.1 755.318 691.586L754.764 691.393C753.927 689.477 754.554 668.978 754.535 665.097L754.395 511.851L754.587 467.531C754.623 459.853 754.793 452.162 754.368 444.497C754.029 438.388 749.824 434.782 748.618 428.989Z"/><path d="M674.042 313.318C675.369 321.846 676.959 404.96 674.863 411.716C674.01 409.589 674.606 400.79 674.613 397.771L674.328 339.155C674.259 331.832 673.352 319.882 674.042 313.318Z"/><path d="M783.092 834.891C784.224 839.992 783.308 845.334 780.54 849.767C778.982 852.226 766.984 865.469 764.897 866.683C764.717 866.505 764.388 866.264 764.379 866.043C770.456 860.403 779.435 851.218 781.779 843.314C782.845 839.719 781.858 838.075 783.092 834.891Z"/><path d="M619.893 489.826L620.265 490.584C622.024 493.989 621.832 523.385 621.071 527.467C619.524 527.071 620.236 521.324 620.274 519.501C620.428 512.105 620.336 504.754 620.27 497.36C620.243 494.296 619.703 493.036 619.893 489.826Z"/><path d="M267.18 701.184C273.747 705.736 276.819 715.522 273.835 723.039C272.545 716.962 274.593 711.937 269.957 705.814C269.102 704.684 267.245 702.391 267.18 701.184Z"/></svg>