<?xml version="1.0" encoding="utf-8" ?><svg xmlns="http://www.w3.org/2000/svg" xmlns:xlink="http://www.w3.org/1999/xlink" width="1024" height="1024" viewBox="0 0 1024 1024"><path fill="#181718" d="M504.282 100.165C517.087 99.4237 530.346 102.293 539.357 112.169C544.032 117.293 547.941 123.274 552.356 128.671L594.024 180.628L719.344 337.116L759.04 386.752C766.491 396.128 773.925 405.593 781.555 414.828C785.48 419.226 791.023 422.076 795.713 425.621C814.009 439.45 820.451 466.695 812.088 487.726C810.434 492.081 807.878 496.503 806.684 501.001C798.717 531.031 790.673 561.15 783.727 591.42C783.697 591.635 783.667 591.85 783.637 592.066C802.969 592.248 822.358 591.887 841.695 591.894C848.501 591.897 857.096 593.213 857.728 601.834C858.523 612.691 858.282 624.131 858.348 635.048L858.481 710.668C870.039 710.811 878.667 710.461 878.492 725.248C878.312 740.469 879.392 756.07 878.163 771.227C877.876 774.761 872.743 778.713 869.357 778.926C860.181 779.896 850.559 779.476 841.281 779.431C823.563 779.266 805.843 779.296 788.124 779.522C786.103 795.545 780.992 809.327 771.218 822.268C757.943 839.59 738.366 850.969 716.744 853.931C694.64 856.942 672.255 850.927 654.637 837.243C634.631 821.739 625.43 803.298 622.347 778.573C611.361 778.259 597.468 778.796 586.246 778.848L509.849 778.994L437.979 778.986C424.554 778.991 409.243 778.658 395.989 779.313C394.816 786.393 393.716 793.277 391.102 800.001C359.088 882.34 241.51 867.821 230.05 779.586C216.158 779.256 201.957 779.71 188.052 779.55C181.349 779.472 172.167 779.987 165.736 778.962C160.945 778.201 156.336 776.561 152.141 774.125C131.925 762.131 133.631 742.035 133.348 721.91C133.026 702.599 132.964 683.284 133.16 663.971C133.347 644.176 130.377 629.131 141.264 611.532C157.604 589.597 176.309 589.816 200.956 589.615C201.477 580.816 201.042 570.195 201.356 560.966C202.251 534.607 211.964 510 229.419 490.078C249.558 466.721 278.21 452.398 308.98 450.307C325.24 449.268 347.638 450.408 364.463 450.011C373.728 449.793 405.882 449.511 413.096 450.987C420.871 452.624 428.079 456.275 433.998 461.576C440.911 467.756 445.768 475.903 447.918 484.924C450.315 494.557 449.598 509.994 449.586 520.507L449.547 565.654C449.545 574.016 449.304 583.927 449.748 592.179C456.76 592.802 468.339 592.473 475.586 592.483L521.691 592.582C569.789 592.772 617.888 592.616 665.984 592.114C674.775 570.7 683.427 549.23 691.94 527.704C696.113 517.348 703.439 500.385 706.432 490.213C702.164 475.412 701.632 470.548 703.89 455.597C664.271 399.414 624.347 343.447 584.121 287.697C574.051 273.646 563.543 259.546 553.709 245.439C547.775 236.895 541.744 228.42 535.616 220.015C531.515 214.297 527.017 207.674 522.483 202.384C520.546 210.518 518.838 223.948 517.577 232.314L511.311 271.882C510.083 279.952 509.042 288.001 507.329 295.986C504.213 310.512 493.075 305.999 482.525 304.267C481.754 308.278 481.594 310.957 482.035 314.968C487.534 323.53 497.537 324.96 503.599 332.564C517.11 349.513 514.447 375.451 498.206 389.313C489.714 396.626 478.609 400.163 467.452 399.106C456.256 398.173 445.91 392.765 438.754 384.104C431.675 375.627 427.5 364.34 428.525 353.214C429.224 345.626 434.49 340.852 442.246 342.088C450.472 343.459 450.709 352.21 451.679 358.671C453.345 369.772 459.978 375.645 470.71 376.76C475.431 377.219 480.136 375.747 483.753 372.68C487.852 369.211 490.388 364.243 490.795 358.889C492.079 342.447 474.376 341.898 466.412 331.594C459.488 322.635 460.153 311.81 461.307 301.173C456.764 300.608 451.49 300.881 447.422 298.556C445.133 297.247 442.96 294.675 442.448 292.036C441.105 285.103 455.164 203.143 457.209 189.751L462.471 154.092C463.412 147.75 464.108 141.076 465.557 134.853C470.313 114.423 484.567 103.406 504.282 100.165ZM155.989 636.533C166.527 636.505 191.974 635.27 200.983 637.621C223.503 643.497 229.663 675.451 212.72 691.818C209.302 695.167 205.082 697.584 200.463 698.836C193.041 700.779 165.816 699.727 156.201 700.092C155.847 713.253 155.846 729.801 156.939 742.991C157.782 753.174 165.605 756.896 175.365 756.941L230.955 756.94C233.101 748.097 234.885 741.936 239.018 733.638C250.383 713.286 267.648 698.429 290.303 692.035C311.793 685.859 334.868 688.635 354.281 699.732C373.488 710.613 387.616 728.644 393.589 749.896C394.203 752.149 394.797 754.408 395.371 756.672C403.921 756.976 413.817 757.324 420.427 750.959C426.705 744.914 427.975 737.499 428.013 729.337C428.148 700.013 427.982 670.69 427.855 641.375L427.973 570.293L427.932 520.925C427.938 513.647 428.335 499.387 427.414 492.62C426.755 487.789 424.534 483.307 421.089 479.856C411.101 469.731 392.106 472.242 378.76 472.26L323.48 472.245C292.631 472.508 269.703 480.266 248.189 502.381C223.917 527.329 221.279 556.346 222.768 589.016C223.337 601.495 223.142 612.357 207.887 612.127C193.261 612.779 174.125 608.414 162.995 620.286C158.866 624.738 156.393 630.474 155.989 636.533ZM449.707 615.527L449.537 710.902C485.471 710.736 521.406 710.753 557.34 710.955C586.4 710.944 618.322 710.268 647.111 710.968C650.99 710.193 658.98 702.511 663.123 700.157C688.15 686.212 718.485 685.676 743.989 698.73C751.055 702.424 754.991 706.685 761.039 710.708C783.251 711.177 805.565 710.514 827.788 710.759C830.613 710.791 833.743 710.903 836.548 710.676C837.089 679.201 836.499 646.632 836.483 615.043C779.11 614.225 720.172 615.175 662.699 615.25L539.249 615.416C509.912 615.333 479.007 615.016 449.707 615.527ZM320.289 832.521C353.765 828.211 377.369 797.523 372.943 764.062C368.518 730.601 337.748 707.103 304.302 711.644C271.02 716.163 247.662 746.751 252.066 780.049C256.47 813.347 286.976 836.81 320.289 832.521ZM711.767 832.777C745.274 829.26 769.553 799.199 765.941 765.703C762.328 732.206 732.198 708.013 698.712 711.721C665.361 715.414 641.286 745.397 644.884 778.758C648.482 812.12 678.396 836.28 711.767 832.777ZM466.133 279.84C473.098 280.873 480.101 281.625 487.127 282.093L501.66 186.674C495.562 186.111 485.851 182.384 481.811 177.866C480.303 184.672 479.622 192.081 478.574 199.051C476.628 211.197 474.76 223.355 472.969 235.525C471.578 244.86 470.131 254.188 468.628 263.506C467.818 268.513 466.55 274.885 466.133 279.84ZM160.356 658.734C153.334 659.157 156.66 659.213 155.969 667C155.686 670.197 155.971 674.636 156.04 677.941C162.422 678.055 190.171 678.203 195.264 677.245L195.973 676.804C204.336 671.763 200.508 659.581 192.756 659.023C182.499 658.284 170.755 658.585 160.356 658.734ZM855.833 733.45L806.407 733.392C798.127 733.365 786.937 733.003 778.91 733.476C782.72 742.92 784.957 746.999 786.732 756.979L855.823 756.795C856.049 749.465 856.102 740.79 855.833 733.45ZM513.292 164.322C524.67 162.003 532.057 150.952 529.85 139.552C527.644 128.152 516.667 120.656 505.245 122.75C493.663 124.873 486.038 136.039 488.276 147.599C490.514 159.16 501.754 166.674 513.292 164.322ZM444.376 755.829C463.672 756.626 487.085 755.939 506.69 755.913L623.23 755.929C624.173 754.821 623.795 755.437 624.073 753.883C625.889 746.262 628.116 740.179 632.326 733.465L519.353 733.538C498.456 733.524 470.216 732.681 449.713 733.718C449.288 743.099 447.918 747.45 444.376 755.829ZM766.733 501.781C785.018 497.738 796.619 479.703 792.716 461.388C788.813 443.073 770.868 431.334 752.523 435.097C733.979 438.9 722.084 457.084 726.029 475.598C729.975 494.113 748.249 505.868 766.733 501.781ZM759.538 592.07C765.595 570.819 773.382 542.091 777.81 520.531C758.719 525.442 746.659 524.824 728.766 514.653C726.869 513.575 723.633 511.707 722.024 510.384C715.566 531.101 705.915 551.763 698.14 572.079C695.627 578.647 692.413 585.291 690.301 591.962C707.402 592.927 731.031 592.48 748.364 592.109L759.538 592.07ZM548.726 161.728C544.015 170.834 542.377 173.001 534.172 179.317L662.949 358.685C676.502 377.351 689.564 396.366 703.255 414.907C707.062 420.062 711.644 426.953 715.483 431.766C719.135 427.953 721.818 424.883 726.246 421.891C735.772 415.542 739.756 414.757 750.811 412.086C707.32 357.054 663.477 302.303 619.283 247.835C601.833 225.772 584.168 203.88 566.292 182.161C562.901 178.054 552.08 164.148 548.726 161.728Z"/><path fill="#181718" d="M317.246 495.227C329.78 494.418 345.151 495.276 358.088 494.878C368.515 494.987 379.034 494.409 389.434 495.124C396.887 495.661 401.017 500.942 401.129 508.182C401.457 529.352 401.394 550.496 401.415 571.672C401.425 582.528 402.83 595.008 394.628 603.484C385.967 612.435 373.328 610.841 362.057 610.995C352.475 611.053 342.84 610.97 333.25 610.946C319.423 610.888 305.595 610.91 291.768 611.011C280.818 611.057 264.171 612.954 255.519 605.584C245.175 596.773 247.965 584.541 247.305 573.081C245.419 540.297 263.649 511.499 294.397 499.661C301.967 496.742 309.179 495.909 317.246 495.227ZM269.5 588.269L333.875 588.2C348.079 588.196 364.937 588.626 378.925 588.049C379.203 565.138 378.201 538.845 379.01 516.531L333.736 516.309C329.869 516.314 316.993 516.154 313.848 516.64C299.154 519.183 287.68 524.801 278.659 537.142C267.087 552.972 269.037 569.479 269.5 588.269Z"/></svg>