<?xml version="1.0" encoding="utf-8" ?><svg xmlns="http://www.w3.org/2000/svg" xmlns:xlink="http://www.w3.org/1999/xlink" width="1024" height="1024" viewBox="0 0 1024 1024"><path fill="#221F20" d="M199.653 148.177C200.626 148.076 201.601 148.002 202.577 147.954C213.524 147.435 227.858 147.953 239.005 147.965L306.328 147.877L528.066 147.904L722.377 147.815L787.683 147.941C799.002 147.955 810.611 147.835 821.914 148.079C828.195 148.214 833.968 150.502 838.594 154.918C843.375 159.525 846.127 165.845 846.245 172.484C846.442 179.362 843.864 186.031 839.092 190.989C830.871 199.363 821.148 197.972 810.508 198.277C809.812 207.729 810.397 223.563 810.395 233.668C810.393 253.198 810.049 273.616 810.473 293.077C819.378 293.336 825.73 292.303 834.362 295.599C858.732 304.904 870.889 330.635 860.522 355.011C855.473 366.885 849.265 372.578 837.923 378.305C825.243 384.709 814.293 379.704 801.515 383.766C760.85 396.35 720.367 409.697 679.775 422.483L632.796 437.293C623.168 440.274 609.727 444.034 600.701 447.829C604.509 449.983 616.757 453.261 621.471 454.658C630.935 457.454 640.368 460.356 649.767 463.363C700.05 479.482 750.452 495.23 800.967 510.605C808.827 507.718 814.998 505.98 823.428 509.042C831.101 511.861 837.341 517.613 840.774 525.033C843.973 532.275 844.105 540.504 841.142 547.846C835.009 562.813 817.533 570.096 802.476 563.935L677.685 603.548L626.551 619.802C617.782 622.596 608.997 625.008 600.331 628.124C604.186 630.026 611.837 632.312 616.188 633.726C626.28 637.026 636.408 640.219 646.568 643.303L747.513 675.225L780.299 685.489C784.921 686.943 794.253 689.611 798.359 691.552C809.039 686.633 818.341 683.604 829.709 690.13C835.591 693.507 840.623 700.035 842.563 706.567C853.866 708.029 863.406 711.123 871.829 719.311C879.886 727.159 884.519 737.871 884.721 749.117C884.834 760.424 881.264 770.862 873.216 778.959C857.119 795.154 838.312 791.924 817.364 792.052C826.383 799.759 832.841 809.304 835.4 820.997C838.231 834.102 835.653 847.795 828.25 858.973C821.087 869.96 809.805 877.604 796.944 880.181C783.547 882.946 769.601 880.156 758.299 872.449C746.573 864.452 740.208 852.942 737.624 839.228C736.948 835.302 736.817 831.3 737.235 827.338C738.689 812.224 744.808 802.116 756.235 792.571C748.934 791.768 740.032 792.016 732.55 792.016L697.375 792.011L581.736 791.898L377.767 791.961C342.262 791.971 304.573 791.404 269.184 792.18C282.261 804.586 290.707 818.258 288.243 836.772C279.476 902.629 183.137 891.534 189.6 825.333C190.857 812.456 197.832 800.472 208.16 792.467C191.224 790.762 175.488 795.343 160.415 784.715C141.585 771.437 135.833 744.794 149.568 725.809C158.391 713.613 168.296 708.917 182.799 706.523C185.838 697.101 192.437 690.602 201.915 687.535C211.568 684.41 218.355 687.292 226.795 691.666C247.168 684.876 268.825 678.423 289.395 671.96L358.571 649.884C379.687 643.245 404.966 635.921 425.464 628.172C417.819 624.948 405.29 621.299 397.132 618.703L342.883 601.687L274.268 579.902C257.976 574.674 239.736 568.577 223.353 564.061C216.671 566.353 209.863 566.938 203.025 564.861C195.564 562.565 189.353 557.34 185.813 550.383C182.219 543.398 181.568 535.266 184.005 527.798C186.581 520.131 192.134 513.822 199.412 510.292C208.593 505.864 215.926 507.341 224.874 510.518C246.897 505.155 274.994 495.021 297.341 488.102C327.222 479.03 357.007 469.645 386.692 459.95C400.085 455.668 412.44 452.198 426.006 447.581C418.364 444.402 404.231 440.448 395.793 437.799L339.661 420.157L262.373 395.707C249.621 391.642 235.759 387.031 223.048 383.175C214.11 380.462 204.331 383.828 192.304 380.042C185.815 378 179.9 374.453 175.042 369.69C166.317 361.24 161.342 349.647 161.229 337.502C160.931 318.257 174.635 301.274 192.526 295.412C200.651 292.751 207.563 292.989 215.97 292.939C216.391 271.535 215.939 249.774 216.185 228.357C216.295 218.791 215.864 207.77 216.359 198.325C201.808 198.191 187.268 198.543 181.12 181.551C178.828 175.064 179.284 167.921 182.383 161.779C186.262 154.139 191.943 150.737 199.653 148.177ZM689.955 366.603L788.504 366.589C797.48 366.547 809.152 366.151 817.965 366.738C844.306 368.493 859.061 336.307 840.909 318.018C835.887 312.951 829.29 309.744 822.203 308.924C816.325 308.244 807.782 308.479 801.684 308.483L769.465 308.506L664.151 308.295L336.349 308.244L247.946 308.486C237.285 308.477 209.221 307.76 200.384 309.544C194.363 310.793 188.84 313.778 184.497 318.131C168.42 334.534 179.496 365.646 203.109 366.461C219.301 367.02 235.333 366.811 251.529 366.765L345.355 366.646L689.955 366.603ZM843.128 776.352C851.656 775.748 857.546 773.251 863.164 766.55C867.994 760.853 870.242 753.406 869.37 745.988C867.607 731.75 854.372 722.487 840.675 722.254C827.361 722.027 814.068 722.078 800.752 722.076L726.424 722.078L500.31 722.186L279.002 722.118L221.753 722.14C210.386 722.084 196.112 721.634 185.014 722.199C158.444 724.657 146.813 753.253 168.521 771.535C176.733 778.451 203.496 776.561 215.509 776.546L269.054 776.519L439.769 776.556L668.32 776.635L776.129 776.607C798.074 776.585 821.273 776.907 843.128 776.352ZM305.321 538.105C353.932 553.704 402.638 569.007 451.436 584.013C463.304 587.708 475.147 591.483 486.965 595.335C491.541 596.806 501.617 600.29 505.775 601.025C512.691 602.178 519.78 601.693 526.474 599.61L684.98 549.359C696.403 545.803 708.961 541.283 720.109 538.004C691.472 527.633 660.448 518.793 631.365 509.491L573.743 491.412C558.181 486.475 541.209 480.755 525.501 476.563C517.021 479.727 508.93 478.759 500.556 476.05L364.935 518.808L326.53 530.792C320.959 532.547 310.13 535.712 305.321 538.105ZM538.247 292.987L759.802 293.017C760.184 281.701 759.949 269.322 759.931 257.916C759.961 238.062 759.889 218.208 759.715 198.354C695.481 196.335 630.096 199.148 565.744 197.994C556.697 197.832 547.189 197.842 538.165 198.032C537.799 210.575 538.114 224.31 538.149 236.967L538.247 292.987ZM266.78 292.932L488.139 292.954C488.816 262.856 488.869 228.286 488.323 198.192C474.148 197.723 458.666 197.993 444.418 197.985L365.77 198.011L301.622 197.997C290.558 197.996 277.369 197.658 266.506 198.175L266.488 260.936C266.49 269.007 266.014 285.634 266.78 292.932ZM200.777 181.914C207.268 182.697 216.242 182.447 222.898 182.408L257.08 182.266L383.266 182.432L822.717 182.53C833.538 179.899 833.478 169.035 824.424 163.611C811.54 163.175 797.603 163.454 784.599 163.463L716.602 163.474L496.033 163.506L301.275 163.459L238.144 163.487C227.207 163.494 214.151 163.181 203.377 163.654C193.17 166.113 193.288 175.794 200.777 181.914ZM346.462 706.221C364.341 707.385 391.635 706.462 410.11 706.489L529.375 706.684L623.069 706.596C640.944 706.59 662.24 707.065 679.793 706.058C657.321 697.093 628.658 689.147 605.15 681.712L562.547 668.32C550.744 664.539 537.425 660.031 525.525 656.983C517.634 660.418 507.963 660.386 500.168 656.57C465.973 667.745 431.7 678.679 397.352 689.372C386.1 692.882 374.878 696.487 363.687 700.188C358.398 701.941 351.475 704.056 346.462 706.221ZM604.881 394.346C614.708 391.215 632.047 386.396 641.005 382.794C626.28 381.671 607.428 381.967 592.57 382.004L523.705 382.208L448.377 382.091C432.265 382.016 414.682 381.651 398.615 382.271C395.655 382.307 392.836 382.114 390.06 383.023L389.604 383.64C391.518 385.896 447.328 402.302 455.285 404.782L487.659 414.836C505.107 420.154 515.547 423.32 533.625 417.035C557.039 408.896 581.434 402.403 604.881 394.346ZM550.623 615.837C556.696 617.871 562.812 619.772 568.968 621.537L696.351 581.275C716.621 575.112 736.833 568.756 756.982 562.207C767.156 558.924 777.817 555.859 787.727 551.976C786.406 549.001 783.426 534.547 783.544 534.634C760.521 541.572 737.578 548.77 714.718 556.227L625.751 584.488L567.252 602.989C563.781 604.065 543.142 609.632 542.028 611.597C543.153 613.806 545.299 614.117 547.739 614.912C548.699 615.226 549.66 615.534 550.623 615.837ZM237.874 551.797C244.426 554.765 253.149 557.219 260.114 559.331C269.4 562.09 278.65 564.967 287.862 567.961L406.357 605.575C422.135 610.647 440.32 615.612 455.537 621.389C462.138 619.42 468.707 617.347 475.241 615.169C478.561 613.937 482.244 612.486 485.597 611.478C480.487 609.134 475.336 607.808 470.009 606.098C451.657 600.205 433.091 594.863 414.753 588.943L312.523 556.726C290.12 549.65 264.586 540.958 242.19 534.924C241.51 541.991 240.967 545.297 237.874 551.797ZM288.209 382.231L274.843 382.6C278.838 385.288 294.689 389.87 300.426 391.69C315.942 396.62 331.487 401.46 347.058 406.212L457.098 440.822C461.282 439.487 466.729 437.925 470.748 436.413L487.112 430.936C477.637 427.504 467.325 424.653 457.644 421.641L401.539 404.118C386.85 399.36 372.124 394.715 357.363 390.185C340.542 384.895 329.683 380.637 311.868 382.05C304.811 382.61 295.523 382.081 288.209 382.231ZM249.625 293.068L250.784 292.8C251.099 287.384 250.939 281.862 250.979 276.434C251.17 250.359 250.629 224.234 250.919 198.165C245.207 198.007 239.492 198.02 233.781 198.206L232.172 198.68C231.723 200.977 231.906 222.301 231.905 226.028L231.874 292.951C237.791 293.061 243.708 293.1 249.625 293.068ZM694.863 382.113L600.064 411.98C591.85 414.579 542.813 429.523 539.846 431.885C541.708 433.678 554.702 437.039 557.835 438.461C567.995 443.074 580.225 437.658 590.149 434.448C619.734 425.942 650.883 415.324 680.466 406.083C696.415 401.107 712.319 395.988 728.176 390.726C734.561 388.639 745.897 385.335 751.838 382.875C737.664 381.684 709.2 381.604 694.863 382.113ZM775.5 292.983C781.628 293.009 788.455 293.171 794.519 292.972C794.748 261.407 794.747 229.841 794.515 198.276C788.981 198.016 781.115 197.836 775.572 198.259C775.806 229.834 775.782 261.409 775.5 292.983ZM750.614 529.034C758.368 526.687 769.848 523.184 777.326 520.349C768.841 516.465 750.52 511.002 741.019 508.099C723.376 502.782 705.77 497.34 688.203 491.774L603.695 465.266C594.099 462.336 574.602 455.729 565.552 454.061C560.861 455.597 542.37 461.103 539.789 463.471C544.22 466.959 596.916 482.526 606.719 485.635C651.313 500.02 696.011 514.077 740.812 527.805C744.011 528.76 747.341 530.001 750.614 529.034ZM504.073 292.992C509.544 292.99 517.177 293.181 522.493 292.824L522.506 198.077C516.378 197.971 510.25 197.96 504.122 198.043C503.56 228.98 503.873 261.987 504.073 292.992ZM513.755 463.153C521.44 462.842 527.453 456.421 527.259 448.733C527.066 441.045 520.738 434.935 513.048 435.011C507.967 435.061 503.309 437.845 500.857 442.295C498.406 446.744 498.542 452.17 501.214 456.491C503.886 460.812 508.679 463.358 513.755 463.153ZM213.256 551.046C221.05 550.468 226.91 543.697 226.363 535.9C225.816 528.104 219.068 522.217 211.27 522.733C203.428 523.252 197.501 530.047 198.051 537.887C198.601 545.727 205.418 551.627 213.256 551.046ZM208.138 701.579C204.113 702.947 203.667 703.245 200.586 705.974C205.447 706.467 208.28 706.408 213.125 706.424C215.796 706.482 216.985 706.275 219.58 706.056C215.15 702.833 213.402 701.439 208.138 701.579ZM234.665 706.064C237.129 706.28 239.741 706.565 242.201 706.634L272.257 706.576C277.325 706.587 287.688 706.934 292.221 706.109C298.262 705.009 307.936 701.607 313.991 699.669L348.654 688.751L487.575 644.423C484.502 637.687 483.844 635.907 483.932 628.257C482.976 627.96 483.375 627.964 482.759 628.022C425.926 644.622 369.378 662.188 313.142 680.711L262.411 696.825C255.195 699.117 241.039 703.204 234.665 706.064ZM817.252 550.504C824.764 548.645 829.355 541.057 827.517 533.54C825.679 526.023 818.105 521.41 810.582 523.226C803.03 525.05 798.394 532.662 800.239 540.209C802.085 547.757 809.709 552.371 817.252 550.504ZM783.319 797.621C764.393 799.575 750.671 816.555 752.733 835.47C754.795 854.384 771.855 868.009 790.757 865.837C809.506 863.684 822.996 846.793 820.95 828.032C818.904 809.271 802.091 795.684 783.319 797.621ZM811.621 702.088C797.667 708.828 814.899 706.504 820.625 706.537C822.3 706.528 823.974 706.462 825.645 706.339C821.046 702.558 820.068 701.298 813.508 701.901L811.621 702.088ZM538.179 644.291L667.25 685.061L707.686 697.967C712.938 699.665 728.537 705.011 733.461 705.761C740.082 706.771 756.548 706.437 763.812 706.391C770.985 706.441 784.731 706.872 791.28 705.908C784.004 702.626 770.169 698.52 762.265 696.049L715.648 681.444L615.638 650.014C598.649 644.69 580.614 638.617 563.622 633.652C557.153 635.672 546.511 638.45 540.386 641.516C539.77 641.825 538.621 643.6 538.179 644.291ZM481.442 448.058C468.253 451.874 454.634 455.36 441.619 459.268C402.448 471.242 363.361 483.491 324.363 496.017L277.792 510.454C270.182 512.818 255.939 516.989 248.957 520.129C251.995 521.692 256.348 523.055 259.669 524.04C265.602 525.978 272.533 528.429 278.493 529.837L403.894 490.251C431.288 481.62 460.159 473.197 487.217 463.879C486.174 461.222 483.061 448.306 482.871 448.038L481.442 448.058ZM242.264 865.923C261.052 864.031 274.782 847.318 272.99 828.52C271.198 809.723 254.556 795.905 235.75 797.598C216.803 799.304 202.859 816.097 204.665 835.035C206.47 853.973 223.336 867.828 242.264 865.923ZM508.966 616.334C501.538 618.573 497.332 626.409 499.571 633.836C501.809 641.263 509.645 645.47 517.072 643.231C524.5 640.993 528.707 633.157 526.468 625.729C524.229 618.302 516.393 614.095 508.966 616.334Z"/></svg>