<?xml version="1.0" encoding="utf-8" ?><svg xmlns="http://www.w3.org/2000/svg" xmlns:xlink="http://www.w3.org/1999/xlink" width="1024" height="1024" viewBox="0 0 1024 1024"><path d="M844.611 220.935C851.154 220.392 864.561 220.281 870.988 221.026C870.177 238.076 870.773 255.208 870.673 272.305C870.621 281.16 871.767 292.568 859.824 293.847C854.908 294.374 849.762 294.109 844.806 294.079C834.873 294.005 824.939 293.986 815.006 294.023C810.567 294.034 802.732 293.851 798.498 294.396C797.696 299.229 797.901 313.385 798.463 318.455L836.46 318.519C872.222 318.55 870.493 316.483 870.502 351.823L870.433 399.645C870.364 406.054 869.036 414.034 860.683 414.502C835.011 415.94 808.896 414.308 783.169 415.098C790.54 426.451 798.646 437.836 806.304 449.063L845.041 506.236C852.479 517.224 862.125 531.391 869.24 542.167C870.804 544.535 870.334 580.673 870.346 585.33L870.346 655.09L870.174 815.095L870.338 863.136C870.366 868.484 870.828 881.988 870.225 886.533L844.972 886.592L844.506 713.143C823.789 681.238 800.295 647.782 778.665 616.307L689.546 485.605C673.987 462.636 656.453 438.379 641.827 415.035L597.006 414.955C589.711 414.959 578.088 414.643 571.073 415.256C571.028 427.017 570.748 441.696 571.131 453.304C579.254 453.748 592.458 451.276 596.753 459.335C596.455 460.978 596.706 460.844 596.808 462.323C598.624 488.588 597.551 515.096 597.598 541.416C597.627 548.194 597.7 554.973 597.819 561.75C597.937 570.989 599.163 571.848 593.711 579.647L593.667 580.284C593.608 580.354 593.561 580.438 593.489 580.496C589.164 584.06 566.165 582.468 559.43 582.602C558.775 587.598 559.161 593.704 559.216 598.851L559.407 623.977C559.539 656.194 550.35 646.323 526.065 648.489C525.504 656.139 525.831 669.979 525.959 677.773C530.145 680.157 534.632 682.149 538.903 684.456C565.285 698.708 578.843 730.385 568.06 759.245C562.529 774.457 551.005 786.737 536.175 793.222C521.309 799.642 504.518 799.971 489.412 794.138C459.734 782.7 443.522 747.437 455.296 717.716C462.571 720.278 471.452 724.311 478.688 727.377C478.354 731.086 477.485 734.989 477.546 738.663C477.853 757.158 492.917 772.591 511.632 772.239C521.516 772.054 528.882 768.923 535.667 761.981C541.968 755.61 545.424 746.961 545.247 738.002C544.767 719.095 532.062 708.895 515.712 702.432C498.592 695.665 499.942 691.362 500.02 675.153C500.131 666.178 500.132 657.201 500.023 648.225C491.032 647.553 476.449 650.381 470.851 644.768C469.084 643.019 467.888 640.776 467.421 638.334C466.683 634.461 466.925 622.801 466.924 618.376L466.879 582.282C458.297 581.827 449.37 582.284 440.719 582.151C423.206 581.882 427.108 563.86 427.215 551.175L427.324 518.972L427.325 485.329C427.332 478.871 427.447 472.464 427.595 466.02C427.952 450.475 440.671 453.836 451.961 453.204C452.283 441.265 452.361 427.037 451.989 415.123C430.252 414.31 406.004 415.119 383.905 414.876C380.074 422.128 369.766 436.337 364.709 443.781C352.284 462.378 339.702 480.87 326.964 499.254L245.978 618.52L212.403 667.558C201.949 682.691 191.522 697.349 181.618 712.869L181.457 833.598L181.376 867.017C181.359 871.978 181.603 881.343 180.916 885.923C179.317 886.872 159.454 886.554 156.058 886.553C155.31 864.506 155.917 838.814 155.903 816.416L155.834 681.604C155.644 651.415 155.636 621.225 155.812 591.036C155.814 584.489 155.314 545.793 156.778 543.421C178.761 507.803 222.11 448.747 242.567 415.171C218.137 414.02 193.183 415.536 168.703 414.841C161.793 414.645 155.677 409.954 155.82 402.723C156.314 377.837 154.648 351.977 156.08 327.186C162.551 316.319 171.091 318.43 182.336 318.455C191.451 318.464 200.565 318.52 209.679 318.625C215.481 318.691 222.887 318.997 228.545 318.501L229.379 318.423C229.672 311.627 229.952 301.036 229.585 294.389C224.963 293.925 217.587 294.082 212.744 294.068L181.967 294.117C162.806 294.171 154.576 295.595 155.848 272.304C156.02 269.14 155.882 264.718 155.893 261.459L155.935 221.087C163.904 220.684 173.022 220.876 181.08 220.898C180.066 224.272 179.943 264.503 180.969 266.612C181.721 267.545 181.739 267.973 183.182 268.008C188.608 268.14 194.562 268.019 199.967 268.018L240.349 268.016L378.827 268.027L689.256 268.009C740.749 268.002 793.072 268.53 844.479 267.996C844.628 252.767 844.103 235.952 844.611 220.935ZM844.491 388.534C844.646 374.207 844.506 359.614 844.443 345.275C826.392 344.855 807.221 345.454 789.029 345.417C753.079 345.027 717.127 344.897 681.175 345.025L376.194 345.002L232.624 345.187L198.49 345.326C194.708 345.332 184.71 345.101 181.755 345.637L181.45 347.849C181.415 347.831 180.498 347.273 180.503 347.779C180.644 360.871 180.155 374.119 180.584 387.172C180.59 387.331 181.363 387.551 181.326 387.538C181.553 388.047 181.792 388.257 182.153 388.707C187.414 389.398 208.643 388.887 215.144 388.874L283.398 388.856L505.435 388.687L734.152 388.802L805.885 388.879C816.15 388.893 835.122 389.463 844.491 388.534ZM844.976 666.242L844.512 552.604C835.195 538.311 825.748 524.104 816.171 509.983C812.301 504.188 804.047 491.087 799.903 486.088C773.9 485.875 747.707 486.29 721.763 485.936C724.053 490.972 730.214 499.174 733.637 504.169L755.035 535.586C770.547 558.667 786.224 581.638 802.065 604.495C808.848 614.487 840.211 662.687 844.976 666.242ZM213.649 618.99C234.091 588.039 256.463 557.463 276.926 526.465C284.845 514.469 296.911 498.3 303.85 486.284C298.411 485.867 292.542 485.885 287.068 485.964C266.565 486.258 245.825 485.541 225.347 486.067C215.279 503.104 203.475 519.278 192.737 535.918C189.37 541.136 184.68 546.965 182.304 552.676C180.69 556.553 180.957 656.862 182.174 665.316L213.649 618.99ZM352.896 415.614C345.361 414.606 331.426 414.987 323.445 414.987L272.171 415.02C266.282 425.857 258.16 436.633 251.418 446.988C249.244 450.328 244.784 456.125 243.13 459.394C248.065 460.123 321.552 460.413 322.881 459.493C333.126 445.066 342.767 429.64 352.896 415.614ZM452.987 514.838C452.537 516.607 451.607 519.311 451.662 521C451.971 530.586 451.939 540.169 451.47 549.751C451.341 552.515 451.021 552.747 452.56 554.6L452.891 555.282C455.022 556.67 491.418 556.081 496.771 556.077L572.384 555.99C572.985 531.373 572.492 504.467 572.493 479.712C546.69 478.862 520.24 480.153 494.378 479.64C480.839 479.371 466.655 479.482 453.101 479.777C452.86 491.436 453.239 503.059 452.987 514.838ZM544.927 415.188C526.091 414.394 500.582 414.778 481.565 415.168C479.805 415.342 479.08 415.157 477.734 416.042C477.223 423.52 477.259 445.979 477.881 453.384C497.376 454.026 521.035 453.293 540.89 453.257C542.585 453.176 543.434 453.383 544.773 452.61C545.502 442.946 544.954 425.424 544.927 415.188ZM533.036 622.036C533.846 615.504 533.344 605.604 533.168 598.875C533.023 593.344 533.426 587.874 533.21 582.516C520.305 581.983 505.991 582.19 493.028 582.51C492.03 588.14 493.019 590.293 492.775 595.5C492.343 604.691 492.847 613.04 493.039 622.158C505.947 622.156 520.303 622.357 533.036 622.036ZM782.825 459.48C776.657 449.631 770.319 439.889 763.815 430.259C760.621 425.447 757.007 419.443 753.459 415.023L696.678 415.022C689.59 415.038 679.411 415.431 672.564 415.168C681.889 430.103 693.655 444.792 703.04 459.899C719.466 460.009 735.893 460.025 752.32 459.948C760.637 459.938 774.801 460.313 782.825 459.48ZM255.142 318.533L379.314 318.5C419.22 318.538 460.084 318.986 499.942 318.47C500.071 310.907 500.457 301.587 499.95 294.191C483.215 293.443 462.541 294.013 445.483 294.005L340.245 293.997L283.852 293.974C277.643 293.973 260.727 293.62 255.283 294.531C254.955 294.97 254.313 295.991 254.374 296.491C254.788 299.855 253.595 316.738 255.142 318.533ZM771.86 318.615C772.885 316.953 772.498 297.944 772.487 294.417C764.871 293.533 747.192 293.993 738.667 293.993L673.923 294.01L576.434 294.008C561.078 294.007 540.979 293.419 526.082 294.138C524.866 300.093 525.868 312.128 525.729 318.505L701.286 318.473L750.304 318.656C754.057 318.678 769.271 319.029 771.86 318.615Z"/><path d="M491.273 504.165L518.966 503.983C525.43 503.96 536.43 503.004 541.329 507.017C551.125 515.041 546.753 529.157 534.125 530.611L506.881 530.913C502.301 530.95 497.685 531.076 493.115 530.89C475.084 530.158 472.071 507.467 491.273 504.165Z"/><path d="M452.987 514.838C453.205 522.195 453.43 548.615 452.56 554.6C451.021 552.747 451.341 552.515 451.47 549.751C451.939 540.169 451.971 530.586 451.662 521C451.607 519.311 452.537 516.607 452.987 514.838Z"/><path d="M181.326 387.538C181.363 387.551 180.59 387.331 180.584 387.172C180.155 374.119 180.644 360.871 180.503 347.779C180.498 347.273 181.415 347.831 181.45 347.849C181.623 358.736 182.072 376.909 181.326 387.538Z"/><path d="M255.142 318.533C253.595 316.738 254.788 299.855 254.374 296.491C254.313 295.991 254.955 294.97 255.283 294.531C255.79 298.903 255.792 314.496 255.142 318.533Z"/><path d="M596.753 459.335C599.733 463.877 598.997 487.435 598.997 494.122L598.935 537.061C598.927 548.714 599.409 560.899 598.676 572.526C598.5 575.313 596.09 578.815 593.667 580.284L593.711 579.647C599.163 571.848 597.937 570.989 597.819 561.75C597.7 554.973 597.627 548.194 597.598 541.416C597.551 515.096 598.624 488.588 596.808 462.323C596.706 460.844 596.455 460.978 596.753 459.335Z"/><path d="M181.08 220.898C181.969 222.296 181.606 262.946 180.969 266.612C179.943 264.503 180.066 224.272 181.08 220.898Z"/></svg>