<?xml version="1.0" encoding="utf-8" ?><svg xmlns="http://www.w3.org/2000/svg" xmlns:xlink="http://www.w3.org/1999/xlink" width="1024" height="1024" viewBox="0 0 1024 1024"><path fill="#1D1C1C" d="M684.27 101.148C699.084 100.093 697.809 114.537 697.73 124.61C697.623 132.171 697.581 139.733 697.602 147.296L697.679 253.102C697.718 262.037 697.706 270.972 697.644 279.907C697.544 295.877 694.792 312.416 716.234 312.706C724.598 312.819 733.018 312.749 741.372 312.724L813.138 312.75C825.258 312.755 837.494 312.495 849.589 313.199C855.498 313.544 859.582 317.566 859.706 323.564C859.906 333.229 853.539 335.59 845.046 335.566C815.759 335.482 786.472 335.5 757.184 335.537L728.905 335.573C713.304 335.591 698.263 336.254 686.137 324.346C672.627 311.078 674.671 290.928 674.565 273.497C665.676 273.343 645.098 274.214 637.304 272.842C631.577 271.834 612.14 262.297 605.275 259.322L511.908 218.174C499.456 236.162 487.611 256.875 475.752 275.478L387.594 414.386C368.524 443.887 349.637 473.506 330.935 503.241C327.184 509.33 323.392 515.394 319.56 521.432C316.56 526.104 312.664 531.635 310.296 536.459C321.061 536.667 324.209 534.546 332.144 543.316C336.067 547.652 341.153 552.67 345.271 556.971C357.641 569.977 370.089 582.908 382.614 595.764C383.163 589.961 382.616 575.403 382.58 568.742L382.472 514.313C382.49 495.893 380.818 478.304 394.792 463.917C404.996 453.205 417.038 448.465 431.798 448.411C463.855 448.28 495.898 448.524 527.957 448.239C534.553 448.181 543.965 448.461 550.269 450.877C579.654 462.139 582.361 495.842 592.612 521.471C594.067 525.108 601.162 545.396 601.259 548.17C602.167 574.06 601.495 600.182 601.843 626.116C606.641 625.646 612.477 624.55 617.484 623.971C667.204 618.226 701.785 637.106 738.924 666.826C738.991 658.142 738.951 649.458 738.806 640.775C738.715 632.571 736.519 617.553 748.352 616.549C760.296 615.536 773.029 616.124 785.102 616.115C786.555 603.741 783.052 567.655 787.01 559.138C788.158 556.666 790.231 554.928 792.84 554.16C796.011 553.227 800.008 553.489 802.888 555.174C805.154 556.499 807.189 558.755 807.804 561.354C809.306 567.712 808.475 575.687 808.463 582.253L808.395 615.477L808.355 752.069C808.336 764.909 807.911 778.398 808.539 791.206C808.948 799.543 813.959 805.428 821.082 809.384C826.21 811.019 833.052 810.751 838.519 810.802C863.452 811.084 888.819 810.464 913.678 810.731C925.569 810.859 930.963 833.258 910.004 833.358C885.1 833.476 859.958 833.467 835.006 833.539C821.335 833.578 809.582 831.391 799.217 821.681C781.818 805.191 785.874 784.06 785.244 762.715C776.656 762.247 748.491 764.866 743.04 759.735C741.113 757.921 740.208 755.919 739.677 753.362C738.147 745.994 739.011 737.324 739.038 729.801L738.984 694.922C710.393 674.881 692.029 655.588 656.972 648.126C645.271 645.584 633.244 644.895 621.33 646.085C575.922 650.635 538.213 683.107 526.972 727.336C524.739 736.342 524.314 744.513 522.887 753.491C521.058 764.993 503.946 762.611 495.474 762.609L466.796 762.577L389.294 762.543C375.492 762.535 359.967 762.159 346.345 762.713C344.284 777.842 340.026 791.231 330.83 803.685C317.105 822.062 296.671 834.267 273.983 837.637C253.308 840.727 228.311 834.832 211.886 821.993C190.666 805.408 182.504 789.277 178.599 763.532C170.764 763.52 143.751 765.233 138.217 760.881C135.482 758.73 134.156 755.989 133.834 752.593C133.044 744.246 133.396 735.677 133.425 727.297L133.427 691.096L133.363 662.768C133.344 656.733 132.855 650.027 133.922 644.082C134.675 639.883 183.188 545.051 188.021 539.545C192.157 534.835 203.916 536.918 209.763 536.584C228.406 511.084 246.189 484.561 264.403 458.722L415.305 243.502L464.242 173.798C471.206 163.898 477.839 153.824 484.999 144.053C492.109 134.35 500.592 140.259 509.271 144.102C545.446 160.12 581.506 176.439 617.763 192.261C621.861 194.05 625.444 196.279 629.789 197.563C631.722 162.339 621.196 155.53 664.537 158.053C667.464 158.224 671.441 158.135 674.495 158.176L674.507 129.06C674.457 118.313 671.422 104.241 684.27 101.148ZM202.02 559.968L168.5 624.538C166.223 628.955 157.173 645.337 156.779 648.44C155.593 657.765 156.051 673.811 156.146 683.79C156.327 702.696 155.978 721.688 156.22 740.503C164.212 740.305 172.208 740.291 180.2 740.46C182.005 733.179 183.655 726.58 186.699 719.955C215.433 657.419 301.932 654.979 335.742 714.317C341.345 724.151 342.335 729.858 345.62 739.963C370.993 739.436 396.373 739.29 421.75 739.525L473.286 739.532C482.08 739.531 492.974 739.801 501.63 739.401C506.359 702.801 522.252 673.573 551.642 650.973C557.248 646.664 563.134 642.734 569.263 639.208C557.197 638.383 541.917 638.676 529.502 638.619L435.063 638.74C429.67 638.725 393.794 639.569 390.967 637.186C383.254 630.683 371.413 617.837 364.066 610.124L315.656 559.591L234.383 559.75C223.97 559.798 212.34 559.627 202.02 559.968ZM516.504 195.397C553.606 212.089 593.323 228.225 629.966 245.554C630.077 237.85 630.087 230.144 629.994 222.44C600.767 209.718 571.62 196.812 542.555 183.724C532.937 179.406 518.899 173.739 509.81 169.218C511.996 177.795 514.097 186.956 516.504 195.397ZM784.963 739.392C785.514 730.857 785.216 720.991 785.379 712.281C785.835 687.958 785.284 663.546 785.27 639.229C778.311 638.981 768.478 638.772 761.578 639.219L761.658 706.818C761.66 715.85 761.149 730.922 761.742 739.476C766.886 739.542 780.084 739.974 784.963 739.392ZM488.464 178.945C479.999 190.166 471.762 202.787 463.682 214.38L428.272 264.757L326.524 410.269L267.22 494.765L248.8 520.899C246.05 524.78 240.18 532.634 238.204 536.536C241.186 536.639 244.141 536.772 247.125 536.744C258.599 536.735 271.062 536.972 282.466 536.66C327.502 466.795 372.131 396.668 416.352 326.284L474.532 234.889C481.269 224.186 488.251 213.765 494.717 202.88C493.745 198.976 489.943 180.845 488.464 178.945ZM653.438 250.508C659.625 250.538 667.451 250.767 673.496 250.416C674.081 249.75 673.984 250.075 674.067 249.573C674.461 226.909 674.087 204.261 674.264 181.599C667.201 181.436 660.135 181.365 653.07 181.385L653.438 250.508ZM254.544 694.262C221.077 698.47 197.359 729.013 201.57 762.48C205.782 795.946 236.328 819.661 269.794 815.446C303.255 811.231 326.965 780.691 322.754 747.229C318.543 713.768 288.005 690.055 254.544 694.262ZM478.795 471.24C468.698 471.331 458.601 471.346 448.504 471.288C440.157 471.259 430.725 470.65 422.565 472.455C415.651 473.985 407.391 482.206 406.281 489.309C405.391 495.005 405.627 501.934 405.631 507.794L405.664 533.779C405.705 560.967 405.286 588.851 405.58 615.965L505.375 616.029C529.493 616.027 554.212 616.306 578.28 615.984C578.838 603.464 578.46 590.809 578.481 578.273C578.496 569.296 579.246 559.599 578.012 550.703C576.651 540.897 557.404 485.182 551.834 478.942C546.814 473.316 540.929 471.637 533.66 471.379C515.427 470.731 497.041 471.146 478.795 471.24Z"/><path fill="#1D1C1C" d="M259.502 717.69C280.015 716.239 297.853 731.617 299.439 752.12C301.025 772.624 285.764 790.562 265.271 792.283C244.588 794.019 226.445 778.584 224.844 757.89C223.244 737.195 238.798 719.154 259.502 717.69ZM265.24 768.619C273.108 766.961 278.116 759.209 276.393 751.356C274.67 743.503 266.877 738.559 259.038 740.347C251.29 742.114 246.416 749.797 248.119 757.559C249.822 765.321 257.465 770.258 265.24 768.619Z"/><path fill="#1D1C1C" d="M626.668 670.171C673.047 666.341 713.764 700.8 717.655 747.175C721.546 793.549 687.139 834.311 640.77 838.262C594.315 842.221 553.461 807.737 549.563 761.277C545.666 714.817 580.203 674.008 626.668 670.171ZM640.283 815.472C674.061 811.844 698.471 781.472 694.745 747.703C691.019 713.935 660.576 689.614 626.818 693.438C593.2 697.247 569.001 727.538 572.711 761.168C576.422 794.797 606.642 819.084 640.283 815.472Z"/><path fill="#1D1C1C" d="M627.783 717.426C648.339 714.164 667.629 728.237 670.797 748.807C673.966 769.378 659.806 788.604 639.222 791.679C618.768 794.736 599.692 780.685 596.543 760.246C593.394 739.807 607.358 720.667 627.783 717.426ZM636.732 768.657C644.596 767.033 649.639 759.324 647.978 751.468C646.317 743.612 638.584 738.605 630.736 740.304C622.941 741.992 617.975 749.661 619.625 757.464C621.276 765.267 628.921 770.27 636.732 768.657Z"/></svg>