<?xml version="1.0" encoding="utf-8" ?><svg xmlns="http://www.w3.org/2000/svg" xmlns:xlink="http://www.w3.org/1999/xlink" width="1024" height="1024" viewBox="0 0 1024 1024"><path fill="#181717" d="M761.058 90.0879C767.687 89.9177 786.797 102.139 793.762 105.971C802.955 110.953 812.116 115.993 821.245 121.092C824.285 122.788 832.361 127.122 834.824 129.22C848.341 140.73 822.416 156.398 821.393 165.969C820.304 176.148 820.795 190.952 820.738 201.295L820.66 302.879L820.485 352.64C820.467 360.068 820.189 372.482 820.817 379.665L820.878 380.303C832.572 380.149 850.801 375.886 850.497 392.794C850.112 414.159 851.331 436.057 850.009 457.35C849.337 468.179 828.059 465.492 820.494 465.494C820.379 472.137 820.531 479.125 820.581 485.796C839.951 498.223 850.406 523.815 838.339 544.803C833.674 552.943 825.946 558.878 816.878 561.287C807.541 563.824 797.571 562.43 789.289 557.427C778.248 550.804 773.641 541.332 770.6 529.352C772.56 523.98 776.109 519.853 782.252 520.356C795.097 521.407 791.801 541.305 807.039 540.808C817.234 540.476 823.513 533.266 823.062 523.161C822.466 509.799 811.488 506.087 802.341 499.721C797.201 495.994 799.024 471.932 799.109 464.956C791.948 464.781 779.614 466.614 774.374 462.01C772.012 459.787 770.529 456.524 770.524 453.288C770.495 432.287 770.033 411.191 770.705 390.212C770.879 388.221 772.213 385.216 773.677 383.886C779.459 378.636 791.971 380.458 799.444 380.436C799.919 370.814 799.405 357.786 799.394 347.91L799.349 283.125L799.494 227.695C799.515 217.356 799.826 205.978 799.167 195.78C789.948 207.32 785.724 214.063 778.556 226.98L760.298 260.176L717.903 337.008L634.798 487.556C622.939 508.824 611.325 530.228 599.958 551.763C609.109 553.645 633.07 554.823 639.056 560.575C644.376 567.061 667.023 584.794 669.913 591.051C673.577 598.984 671.075 640.997 671.03 650.788C670.982 661.031 649.759 658.398 642.914 658.326C632.269 658.158 621.622 658.207 610.98 658.474C610.969 665.922 611.01 673.369 611.102 680.816C627.723 681.352 644.559 680.703 661.199 680.613C667.814 680.578 675.779 679.694 682.211 681.06C684.56 681.559 686.532 683.236 688.288 684.803C694.104 689.991 722.722 716.252 725.581 720.923C726.83 722.964 727.063 725.805 727.175 728.155C727.534 735.688 728.998 759.606 723.717 764.514C719.665 768.279 689.049 766.823 682.185 766.954C678.289 777.727 675.588 782.931 667.664 791.121C672.935 791.646 680.999 791.34 686.578 791.303L713.64 791.278L801.603 791.184C814.84 791.15 828.594 790.686 841.789 791.522C851.069 792.111 853.639 805.416 846.567 810.414C842.316 813.419 833.363 812.613 828.141 812.583L805.75 812.481L363.854 812.385L223.43 812.423L180.495 812.423C174.516 812.428 168.531 812.521 162.591 812.582C156.813 812.536 152.217 807.498 152.038 801.897C151.749 788.87 166.827 791.214 175.401 791.026C198.045 790.529 221.494 792.091 244.025 791.057C235.261 783.171 232.193 777.576 228.946 766.433C217.065 766.062 202.211 768.355 190.596 765.553C186.448 764.552 184.863 755.328 185.125 750.161C185.59 740.949 183.847 728.067 186.533 718.942C196.177 707.069 207.355 696.148 217.595 684.743C222.902 678.831 237.013 680.604 244.868 680.588L282.015 680.526C282.491 674.521 282.16 664.755 281.975 658.571C273.146 658.124 261.037 658.469 251.93 658.455L193.333 658.407C183.556 658.407 173.784 658.539 164.002 658.332C157.135 658.187 152.473 655.305 152.204 647.905C151.86 638.417 152.036 628.819 152.038 619.31L152.056 561.738L152.004 507.873C151.999 498.801 151.814 489.591 152.224 480.571C152.662 475.172 157.451 471.356 162.629 471.187C172.267 470.874 181.865 471 191.473 471L246.259 471.032L282.282 471.063C288.749 471.064 295.905 470.464 302.264 471.454C304.562 471.812 307.563 472.752 308.979 474.718C309.111 474.903 309.235 475.094 309.367 475.279C314.328 482.266 359.165 560.534 360.002 564.287C362.57 575.794 359.899 588.23 360.972 599.922C360.99 600.121 361.013 600.319 361.033 600.517L393.041 600.981C394.779 583.999 389.842 558.513 396.259 541.634C398.872 534.76 403.205 529.718 407.768 523.958C422.972 504.763 437.806 485.318 453.399 466.42L601.251 286.69C616.486 268.175 631.958 249.857 647.664 231.74L665.307 211.487C668.172 208.194 673.161 203.091 675.289 199.588C682.862 187.127 688.01 172.485 696.172 160.406C698.732 156.618 704.122 151.345 707.269 147.791L727.343 124.944C735.349 115.864 743.249 106.673 751.214 97.5567C754.159 94.1864 756.713 91.5316 761.058 90.0879ZM511.667 541.343C530.113 543.193 548.527 546.047 566.881 547.898C569.819 548.326 572.845 548.72 575.757 549.263L695.882 332.71L735.918 260.221C745.329 243.283 755.092 226.522 764.134 209.382C757.569 205.484 750.298 202.417 743.518 198.915C732.075 193.005 720.765 187.778 709.114 182.367L566.098 442.107C552.375 467.225 537.981 492.135 524.719 517.534C521.414 523.864 513.992 535.384 511.667 541.343ZM414.036 637.919L566.811 637.899C593.513 637.868 624.852 638.706 651.257 637.764C651.771 629.171 651.668 609.907 651.108 601.248C644.344 593.242 634.358 584.809 626.652 576.355C588.588 571.176 548.41 567.169 510.137 562.587C488.753 559.938 467.352 557.438 445.934 555.087C435.259 553.914 424.793 552.474 414.074 551.79C413.711 579.444 413.346 610.375 414.036 637.919ZM229.393 701.988C224.328 707.353 210.443 721.729 206.446 727.139C206.387 733.179 206.278 739.545 206.503 745.574C212.12 745.826 227.584 746.196 232.942 745.738C237.531 739.038 254.911 712.804 261.531 712.839C273.628 712.904 296.325 711.333 308.043 713.117C314.729 717.681 327.835 737.97 333.214 745.587C338.673 745.611 344.407 745.704 349.845 745.509C354.618 738.533 359.527 731.65 364.57 724.867C367.494 720.909 372.833 712.968 377.499 712.879C384.805 712.738 421.826 711.047 426.011 714.44C430.434 718.025 444.974 739.203 449.322 745.128C453.058 745.593 459.426 745.66 463.305 745.489C472.191 735.555 479.053 723.531 488.554 714.684C491.561 711.885 508.08 712.362 512.523 712.583C519.451 712.928 537.962 710.075 542.368 715.237C550.327 724.564 557.855 735.708 564.738 745.809L579.826 745.696L580.351 745.092C588.595 735.524 595.861 721.842 605.363 713.791C614.763 710.692 629.873 713.216 639.499 712.293C646.109 711.659 656.951 712.227 660.278 716.421C667.174 725.114 674.396 736.439 680.092 745.815C686.288 745.769 699.584 745.902 705.407 745.13C706.058 740.222 705.993 736.664 705.791 731.692C703.668 728.563 698.712 724.146 695.86 721.399L675.199 701.867C648.83 701.975 622.461 701.937 596.092 701.753L361.48 701.912C317.758 701.86 273.039 701.274 229.393 701.988ZM218.493 570.516L293.065 586.661C305.873 589.466 326.633 594.742 339.336 596.523C339.772 588.34 339.538 578.832 339.514 570.541L308.822 516.712C304.271 508.712 299.689 500.072 294.963 492.239C273.377 491.274 251.08 492.42 229.43 492.011C225.789 491.943 222.021 492.056 218.382 492.229C218.074 497.427 218.21 502.731 218.308 507.944C218.701 528.777 218.184 549.694 218.493 570.516ZM173.433 638.303C211.905 637.74 251.048 638.016 289.579 638L323.326 638.036C328.419 638.041 336.687 638.26 341.449 637.855C341.459 631.927 341.562 625.684 341.396 619.791C328.1 616.342 313.745 613.774 300.283 610.896L243.28 598.421L219.098 593.311C210.489 591.486 197.045 590.882 196.641 579.542C195.615 550.681 197.559 521.089 196.641 492.297C189.127 492.028 180.396 492.546 173.46 492.201L173.433 638.303ZM429.095 531.853L471.829 537.079C476.822 537.695 483.657 538.23 488.437 539.023C495.318 526.205 502.494 513.861 509.524 501.189L560.726 408.437L595.13 346.173L610.706 317.768C613.449 312.678 616.382 306.494 619.248 301.672C620.66 299.005 620.463 297.738 618.414 300.659C608.036 313.786 596.621 326.31 585.942 339.356L486.328 460.435L453.638 500.544C449.04 506.106 432.583 525.907 429.095 531.853ZM645.944 733.497L614.956 733.505C609.286 740.338 601.465 751.025 596.479 758.381C602.182 779.091 618.22 790.216 639.495 784.214C640.31 783.984 641.124 783.747 641.936 783.504C652.533 778.497 660.092 768.948 662.43 757.419C656.745 749.606 651.637 741.399 645.944 733.497ZM588.599 680.672C588.607 673.512 588.756 665.683 588.547 658.555C571.15 658.422 553.754 658.378 536.357 658.422C526.899 658.422 515.015 658.133 505.725 658.593C505.69 665.653 505.637 673.446 505.849 680.479C516.97 681.024 530.562 680.645 541.859 680.619L588.599 680.672ZM393.237 621.76C384.464 621.414 371.248 621.328 362.45 621.695L362.39 622.407C361.5 633.512 365.782 652.188 355.94 658.415C338.787 659.07 320.709 657.957 303.63 658.731C303.616 665.93 303.503 673.361 303.607 680.539C319.573 681 336.528 680.669 352.592 680.647L425.375 680.615L483.991 680.499C484.093 673.274 484.242 665.686 484.019 658.467C456.925 657.638 429.44 659.021 402.34 658.412C389.56 658.125 393.352 630.711 393.237 621.76ZM828.493 444.537C828.665 430.912 828.549 416.695 828.502 403.029C817.42 402.728 803.07 402.768 791.984 403.056L791.917 444.534C801.598 445.153 818.455 444.809 828.493 444.537ZM551.037 791.447C560.38 791.64 568.441 791.613 577.75 791.515C582.766 791.459 587.186 791.477 592.204 791.287C583.595 781.68 581.282 779.383 577.34 767.157C573.13 766.94 569.913 766.996 565.693 767.103C561.223 778.923 559.072 781.884 551.037 791.447ZM722.636 165.385C736.579 172.205 750.387 179.258 764.485 185.763C767.43 187.123 770.466 188.479 773.299 190.043L776.268 191.358C788.884 175.532 801.22 156.898 813.163 140.368C797.177 131.822 781.895 122.833 765.436 114.887L735.081 150.296C731.484 154.567 725.766 160.959 722.636 165.385ZM450.217 767.203C448.402 776.821 441.986 784.297 435.752 791.258C444.423 791.387 453.02 791.379 461.691 791.461C466.75 791.392 471.533 791.45 476.62 791.333C467.152 779.791 467.646 780.835 461.073 767C457.241 766.974 454.028 767.038 450.217 767.203ZM345.458 767.039C341.42 766.911 338.187 766.987 334.205 766.998C329.12 779.967 327.561 780.922 319.133 791.373C327.913 792.039 337.767 791.589 346.625 791.361C351.269 791.272 355.647 791.34 360.373 791.235C352.261 782.508 349.034 778.893 345.458 767.039ZM384.532 733.492C380.467 738.723 368.365 754.01 365.286 759.217C370.576 777.942 386.582 791.182 406.542 785.348C407.869 784.956 409.182 784.517 410.478 784.032C422.494 778.353 428.232 770.275 431.52 757.541C426.392 750.465 418.928 740.767 414.382 733.581L384.532 733.492ZM271.822 733.208C270.503 733.272 268.19 733.148 267.448 734.07C261.113 741.943 255.736 750.941 249.118 758.551C253.991 777.467 270.484 790.649 290.346 785.156C290.777 785.036 291.206 784.908 291.633 784.771C305.825 779.708 311.076 771.077 315.165 757.286C309.766 749.273 304.262 741.33 298.655 733.461C289.719 732.967 280.765 732.883 271.822 733.208ZM498.864 733.487C494.046 740.333 484.766 752.756 480.914 759.741C488.607 780.822 503.773 791.612 526.328 783.841C539.36 777.334 542.446 771.167 546.793 758.062C542.382 749.899 535.979 741.477 530.968 733.562C520.267 733.473 509.566 733.448 498.864 733.487Z"/><path fill="#D0D5D8" fill-opacity="0.12156863" d="M618.414 300.659C620.463 297.738 620.66 299.005 619.248 301.672L618.414 300.659Z"/></svg>