<svg version="1.1" id="Layer_1" xmlns="http://www.w3.org/2000/svg" xmlns:xlink="http://www.w3.org/1999/xlink" x="0px" y="0px"
	 width="100%" viewBox="0 0 800 1024" enable-background="new 0 0 800 1024" xml:space="preserve">
<path fill="#000000" opacity="1.000000" stroke="none" 
	d="
M281.000061,649.735962 
	C367.306183,649.729736 453.112274,649.724304 538.918396,649.718079 
	C556.485840,649.716797 565.214600,658.496460 565.253113,676.221191 
	C565.264282,681.339050 565.254883,686.456848 565.254883,692.603271 
	C541.341003,682.712891 519.511719,684.112610 500.950012,701.759460 
	C482.467163,719.331238 478.966064,740.840698 487.976990,766.018616 
	C386.831757,766.251221 286.436188,765.890808 185.039993,766.027161 
	C193.502686,740.208801 190.051025,717.391663 169.535553,699.913269 
	C149.097107,682.500610 126.253410,682.555481 101.809525,695.886902 
	C102.529846,683.685181 99.435120,672.452393 104.715775,662.001526 
	C109.096893,653.331055 116.901222,649.705322 126.548691,649.712158 
	C177.865784,649.748718 229.182922,649.733582 281.000061,649.735962 
M301.631287,728.131592 
	C303.131012,728.124023 304.630798,728.122864 306.130463,728.107727 
	C313.105927,728.037231 313.610229,727.571106 313.630066,720.784851 
	C313.656342,711.786743 313.540253,702.787109 313.674500,693.790955 
	C313.734741,689.753052 312.027618,688.022034 308.036926,688.025635 
	C280.376190,688.050720 252.715332,688.027283 225.054565,687.987732 
	C221.767914,687.983032 220.188766,689.321472 220.218643,692.771606 
	C220.306671,702.935242 220.307098,713.101074 220.194794,723.264404 
	C220.151016,727.225830 222.115433,728.645020 225.752670,728.498535 
	C229.245529,728.357849 232.737656,728.171082 236.232040,728.100098 
	C257.717499,727.663818 279.201996,729.418457 301.631287,728.131592 
z"/>
<path fill="#000000" opacity="1.000000" stroke="none" 
	d="
M399.000061,209.701874 
	C444.662537,209.704819 489.825012,209.705872 534.987488,209.713165 
	C543.474792,209.714523 545.002625,211.144836 545.006348,219.468079 
	C545.030518,273.296326 544.991943,327.124634 545.047180,380.952820 
	C545.059753,393.215668 537.773193,402.468567 523.299377,402.581177 
	C408.648224,403.473083 293.996948,402.541809 179.346817,402.918274 
	C167.858643,402.955994 156.369583,402.964386 144.881927,402.868195 
	C129.435059,402.738800 121.928894,395.106079 121.926003,379.650055 
	C121.918938,341.820374 121.923775,303.990692 121.927803,266.161011 
	C121.928528,259.305756 121.937263,259.301147 114.996803,259.290680 
	C109.663979,259.282654 104.330345,259.345154 98.998528,259.271271 
	C93.774475,259.198853 91.874191,257.541107 91.818474,252.507996 
	C91.685654,240.510559 91.731575,228.510803 91.756836,216.512100 
	C91.766167,212.076767 93.971863,209.692856 98.528427,209.713165 
	C100.028214,209.719849 101.528084,209.702896 103.027916,209.702881 
	C201.518616,209.702225 300.009338,209.702225 399.000061,209.701874 
M339.848145,354.759583 
	C339.765106,355.588074 339.650421,356.414764 339.603882,357.245300 
	C339.062317,366.904205 339.065033,366.898926 348.531494,366.899994 
	C406.986572,366.906464 465.441650,366.915741 523.896729,366.922943 
	C525.395508,366.923126 526.895569,366.865936 528.392700,366.912231 
	C531.289490,367.001770 532.630066,365.740875 532.615845,362.740112 
	C532.528015,344.255676 532.491577,325.770813 532.506653,307.286194 
	C532.509399,303.892700 531.573486,302.301666 527.647705,302.309509 
	C466.528290,302.431915 405.408508,302.419312 344.288940,302.343750 
	C340.813538,302.339447 339.745361,303.381989 339.790070,306.936188 
	C339.987000,322.588013 339.876617,338.243744 339.848145,354.759583 
M326.833160,345.499817 
	C326.839111,333.005707 326.746429,320.510284 326.909058,308.018219 
	C326.960144,304.093384 325.898590,302.337677 321.577942,302.345093 
	C261.273224,302.448486 200.968231,302.443115 140.663467,302.353516 
	C136.422806,302.347229 134.884384,303.594208 134.944122,308.065125 
	C135.175537,325.386963 135.019363,342.713959 135.005905,360.039032 
	C135.000626,366.848236 135.039810,366.909088 142.019547,366.909912 
	C192.329178,366.915924 242.638794,366.913239 292.948425,366.912415 
	C302.610535,366.912262 312.274323,366.803223 321.933899,366.959106 
	C325.605011,367.018372 327.021088,365.670563 326.876221,361.990326 
	C326.673248,356.834198 326.829315,351.663910 326.833160,345.499817 
M344.141968,289.690063 
	C404.953094,289.694824 465.764252,289.689514 526.575378,289.730743 
	C530.007935,289.733063 532.722717,289.785309 532.663574,284.927032 
	C532.454712,267.769257 532.643494,250.607025 532.548523,233.447235 
	C532.513123,227.059082 532.346069,227.058777 525.624329,227.060593 
	C467.145691,227.076340 408.667023,227.092941 350.188385,227.108200 
	C339.893005,227.110886 339.965027,227.108963 339.903870,237.494537 
	C339.811737,253.149368 340.292603,268.809662 339.478363,284.458771 
	C339.336517,287.184753 339.078186,290.119293 344.141968,289.690063 
M197.499969,289.698608 
	C238.497238,289.697845 279.494934,289.608032 320.491241,289.808746 
	C325.630768,289.833893 327.027191,288.256866 326.948700,283.276337 
	C326.683441,266.448364 326.736328,249.612167 326.933594,232.782242 
	C326.984467,228.442566 325.609711,226.997467 321.212463,227.006302 
	C261.050018,227.127258 200.887253,227.131958 140.724762,227.035263 
	C136.344513,227.028198 134.932312,228.526184 134.977844,232.848770 
	C135.156845,249.845505 135.167404,266.846710 134.963806,283.842987 
	C134.909012,288.417267 136.409256,289.849854 141.004837,289.792542 
	C159.500717,289.561829 178.001190,289.697357 197.499969,289.698608 
z"/>
<path fill="#000000" opacity="1.000000" stroke="none" 
	d="
M497.638062,503.814850 
	C444.042664,516.860352 390.846466,529.800659 337.641418,542.704529 
	C274.253906,558.077881 210.858200,573.417175 147.467850,588.778748 
	C139.852707,590.624146 133.168915,589.272278 128.215912,582.826233 
	C123.635689,576.865417 123.548546,569.401184 127.560509,562.663574 
	C130.340851,557.994385 134.748795,555.988647 139.768845,554.775757 
	C172.762329,546.804077 205.753662,538.823242 238.731766,530.788208 
	C300.167480,515.819580 361.589905,500.796417 423.025360,485.826752 
	C455.356537,477.948792 487.698303,470.114197 520.047546,462.311005 
	C527.219910,460.580963 533.754578,461.756348 538.538818,467.821747 
	C543.056458,473.549255 543.648071,480.001190 540.680115,486.634735 
	C538.252930,492.059540 533.731506,494.960876 528.091492,496.334381 
	C518.069092,498.775116 508.052429,501.239197 497.638062,503.814850 
z"/>
<path fill="#000000" opacity="1.000000" stroke="none" 
	d="
M515.459412,556.283325 
	C517.483887,555.773193 519.093323,555.337463 520.725891,555.020325 
	C531.134949,552.999084 539.907410,558.407104 542.076782,568.156433 
	C544.106201,577.277161 538.289734,586.579834 528.634399,589.045898 
	C514.133179,592.749573 499.566071,596.195862 485.022400,599.732727 
	C428.936188,613.372131 372.843750,626.985901 316.766785,640.663025 
	C310.253387,642.251648 303.713898,643.011719 297.001648,643.004333 
	C255.857376,642.959167 214.712967,643.043518 173.568619,643.035522 
	C171.715195,643.035156 169.646576,643.612854 167.527313,641.894531 
	C170.398849,639.938354 173.401917,639.723206 176.167328,639.047546 
	C248.073975,621.476929 319.996460,603.971252 391.914062,586.445618 
	C432.963013,576.442505 474.008240,566.424133 515.459412,556.283325 
z"/>
<path fill="#000000" opacity="1.000000" stroke="none" 
	d="
M167.801865,490.957458 
	C160.596771,492.643616 153.803207,494.271179 146.980972,495.768097 
	C136.399796,498.089752 127.438675,493.109711 125.016014,483.654633 
	C122.492973,473.807739 128.302872,464.597260 139.033386,461.961884 
	C181.512222,451.529114 224.014542,441.191864 266.510712,430.829773 
	C294.626282,423.974213 322.744080,417.127777 350.869843,410.314301 
	C352.469910,409.926697 354.151184,409.694214 355.794922,409.692932 
	C400.932983,409.657654 446.071106,409.659729 491.209198,409.671356 
	C492.342102,409.671661 493.474915,409.849976 494.607788,409.945282 
	C494.684326,410.379242 494.760864,410.813171 494.837402,411.247101 
	C385.958435,437.778168 277.079498,464.309204 167.801865,490.957458 
z"/>
<path fill="#000000" opacity="1.000000" stroke="none" 
	d="
M125.152878,694.783081 
	C146.224731,691.600952 165.641708,700.530396 175.422577,717.645081 
	C185.881683,735.946533 184.344391,758.016418 170.337662,773.986511 
	C157.417770,788.717468 140.662140,794.215271 121.603745,789.031311 
	C102.625854,783.869263 90.638184,771.004944 86.867714,751.631714 
	C81.652214,724.833801 97.154953,702.048035 125.152878,694.783081 
M129.311127,710.791809 
	C128.331268,710.983459 127.330132,711.101562 126.374756,711.377930 
	C113.300781,715.160400 105.163963,723.799866 102.794174,737.087524 
	C100.520935,749.833801 105.096481,760.566589 115.460396,768.167786 
	C125.873138,775.804749 137.334534,776.566345 148.832657,770.436462 
	C161.857971,763.492310 168.356262,747.808777 164.315506,733.846130 
	C159.912216,718.630859 146.357468,709.416565 129.311127,710.791809 
z"/>
<path fill="#000000" opacity="1.000000" stroke="none" 
	d="
M514.647461,700.497314 
	C544.138245,683.635193 579.188599,701.732971 585.856445,732.203552 
	C591.853394,759.608704 572.018677,787.380310 544.423889,790.460571 
	C521.544006,793.014587 500.332855,779.072327 492.984985,757.783813 
	C485.653320,736.542358 494.330414,713.265625 514.647461,700.497314 
M539.365845,710.390320 
	C519.431152,710.886475 505.181885,726.618713 507.450745,746.297241 
	C509.617310,765.088989 527.617798,777.020447 544.742126,773.795227 
	C560.553223,770.817322 572.751221,754.186157 570.006287,738.438477 
	C567.123108,721.897888 557.679321,713.012451 539.365845,710.390320 
z"/>
<path fill="#000000" opacity="1.000000" stroke="none" 
	d="
M162.707626,501.731262 
	C159.723419,500.635620 159.721603,499.585632 162.380661,498.818451 
	C166.057938,497.757538 169.779434,496.841553 173.502533,495.949127 
	C191.143890,491.720612 208.798035,487.545197 226.431137,483.282623 
	C228.764084,482.718658 230.978745,482.621552 233.319199,483.200378 
	C259.816833,489.753784 286.326813,496.257202 312.826050,502.803986 
	C313.898438,503.068939 314.897369,503.631439 316.523407,504.298492 
	C312.152832,506.858002 307.812805,507.194397 303.741638,508.226898 
	C288.899963,511.990936 273.849976,515.024292 259.189148,519.378967 
	C249.406143,522.284851 240.377075,521.127808 230.899033,518.673157 
	C208.350723,512.833557 185.686905,507.439972 162.707626,501.731262 
z"/>
<path fill="#000000" opacity="1.000000" stroke="none" 
	d="
M400.149780,440.952454 
	C415.182861,434.959106 429.463745,437.052460 444.212555,441.351074 
	C463.341034,446.926178 482.896362,451.035645 502.260712,455.805206 
	C503.686768,456.156403 505.054871,456.742920 506.494781,457.235413 
	C505.921112,459.968964 503.594238,459.496246 502.088501,459.868958 
	C481.757690,464.900787 461.389923,469.783203 441.042053,474.746704 
	C438.890076,475.271637 436.796417,475.438812 434.639008,474.905457 
	C408.020538,468.324951 381.398804,461.757935 354.784729,455.159790 
	C353.859131,454.930328 353.004761,454.413452 351.919342,452.657318 
	C367.863251,448.791107 383.807129,444.924896 400.149780,440.952454 
z"/>
<path fill="#000000" opacity="1.000000" stroke="none" 
	d="
M482.831909,543.995056 
	C490.929016,546.071838 498.631012,548.028015 506.393738,549.999573 
	C505.750092,553.000793 503.410522,552.448914 501.899841,552.822449 
	C481.385376,557.894958 460.835907,562.825806 440.301666,567.818787 
	C438.324188,568.299622 436.369843,568.532715 434.377838,568.039429 
	C407.727081,561.438354 381.077240,554.833618 354.427765,548.227417 
	C353.620483,548.027344 352.792786,547.838196 352.484375,546.537415 
	C353.730072,545.284912 355.570923,545.124146 357.232941,544.713257 
	C377.262085,539.760315 397.308014,534.875061 417.332642,529.903992 
	C420.352570,529.154297 423.198669,529.417664 426.178314,530.154236 
	C444.916687,534.786072 463.681000,539.312927 482.831909,543.995056 
z"/>
<path fill="#000000" opacity="1.000000" stroke="none" 
	d="
M251.654877,613.824829 
	C243.180145,616.452698 235.853668,612.583984 228.400909,610.869690 
	C207.513016,606.065186 186.767822,600.640503 165.964264,595.468811 
	C164.386078,595.076477 162.665314,595.014648 161.579025,593.360107 
	C163.324936,591.105957 166.064423,591.335388 168.365387,590.769653 
	C188.054062,585.928711 207.779587,581.237854 227.480667,576.446899 
	C229.317780,576.000122 231.016663,575.972778 232.863403,576.426392 
	C259.011292,582.848633 285.172119,589.218323 311.333923,595.583618 
	C312.784149,595.936523 314.288727,596.100037 316.108398,598.267090 
	C294.403198,603.496460 273.227112,608.598267 251.654877,613.824829 
z"/>
<path fill="#000000" opacity="1.000000" stroke="none" 
	d="
M422.000000,642.967285 
	C403.347290,642.969360 385.194580,642.967896 367.041870,642.976013 
	C362.048950,642.978271 357.230896,642.176819 352.555573,640.245483 
	C352.957672,638.237122 354.513184,638.242249 355.645477,637.966797 
	C376.166656,632.975037 396.710846,628.077942 417.227844,623.069336 
	C420.777222,622.202881 424.106628,622.713928 427.547485,623.562927 
	C450.632751,629.259216 473.737091,634.878296 496.833557,640.529236 
	C497.600555,640.716797 498.349670,640.977539 499.107117,641.204224 
	C499.086121,641.791992 499.065094,642.379700 499.044098,642.967407 
	C473.529388,642.967407 448.014709,642.967407 422.000000,642.967285 
z"/>
<path fill="#000000" opacity="1.000000" stroke="none" 
	d="
M209.757202,420.390991 
	C197.228638,417.316589 185.105286,414.319458 172.981934,411.322327 
	C173.064636,410.995667 173.147324,410.668976 173.230026,410.342285 
	C220.883026,410.342285 268.536041,410.342285 316.189026,410.342285 
	C316.254700,410.821808 316.320374,411.301331 316.386017,411.780823 
	C309.598846,413.559540 302.833405,415.426910 296.020050,417.098938 
	C280.836456,420.825012 265.632660,424.469177 250.427246,428.105530 
	C248.033951,428.677887 245.735336,429.260345 243.097443,428.571686 
	C232.159363,425.716309 221.147308,423.144318 209.757202,420.390991 
z"/>
<path fill="#000000" opacity="1.000000" stroke="none" 
	d="
M123.122620,746.213623 
	C122.251610,738.547668 124.155838,734.470642 129.350662,732.179626 
	C133.886688,730.179138 139.387192,731.335144 142.470871,735.171143 
	C145.244446,738.621460 146.189316,742.461975 144.409668,746.786560 
	C142.479752,751.476501 138.823303,753.911438 134.025177,753.986023 
	C128.967514,754.064575 125.206726,751.466248 123.122620,746.213623 
z"/>
<path fill="#000000" opacity="1.000000" stroke="none" 
	d="
M544.898682,752.151550 
	C539.773987,754.992126 535.243469,754.426819 531.184204,750.937744 
	C527.531738,747.798279 526.641602,743.587524 527.966248,739.134521 
	C529.322754,734.574280 532.765686,732.093445 537.422180,731.359497 
	C542.340881,730.584229 547.073914,733.240051 549.155334,737.860229 
	C551.461365,742.978882 550.203918,747.502869 544.898682,752.151550 
z"/>
</svg>