<?xml version="1.0" standalone="no"?>
<!DOCTYPE svg PUBLIC "-//W3C//DTD SVG 20010904//EN"
 "http://www.w3.org/TR/2001/REC-SVG-20010904/DTD/svg10.dtd">
<svg version="1.0" xmlns="http://www.w3.org/2000/svg"
 width="2048.000000pt" height="2096.000000pt" viewBox="0 0 2048.000000 2096.000000"
 preserveAspectRatio="xMidYMid meet">

<g transform="translate(0.000000,2096.000000) scale(0.100000,-0.100000)"
fill="#000000" stroke="none">
<path d="M12790 13345 l0 -4005 -22 -14 c-29 -17 -819 -460 -830 -464 -9 -4
-1205 2393 -2678 5368 l-568 1145 -2271 3 -2271 2 0 -2899 0 -2898 -122 -6
c-145 -7 -215 -23 -323 -76 -149 -73 -264 -192 -335 -342 -60 -130 -59 -103
-62 -1072 -2 -488 0 -887 3 -887 4 0 26 7 49 15 140 50 384 57 541 16 209 -54
402 -177 530 -338 105 -132 159 -240 201 -401 18 -72 22 -114 22 -237 0 -142
-4 -178 -40 -302 l-6 -23 3276 0 c1802 0 3276 2 3276 6 0 3 -13 36 -29 74 -66
154 -95 310 -95 505 0 158 13 248 56 385 66 210 170 383 323 536 249 250 585
394 923 394 56 0 102 2 102 5 0 3 -84 172 -186 376 -102 204 -184 372 -182
374 2 1 111 64 243 140 132 76 289 167 348 202 60 34 113 63 118 63 5 0 9
-256 9 -634 l0 -633 48 -18 c156 -59 300 -153 438 -287 55 -54 103 -98 105
-98 2 0 4 406 4 902 l0 903 133 3 132 3 0 -1606 0 -1605 2051 0 c1791 0 2050
2 2046 15 -8 19 -184 274 -210 303 l-20 22 -1764 0 -1763 0 0 5130 0 5130
-170 0 -170 0 0 -3550 0 -3551 -132 3 -133 3 -3 3963 -2 3962 -295 0 -295 0 0
-4005z m-4122 1388 c50 -104 472 -955 938 -1893 465 -938 1052 -2120 1304
-2626 252 -507 463 -938 470 -959 10 -29 10 -46 1 -76 -10 -34 -41 -60 -274
-240 -144 -111 -268 -206 -274 -212 -9 -7 -76 87 -250 352 -439 666 -668 1014
-864 1314 -107 163 -303 462 -436 664 -185 281 -239 369 -228 375 42 24 594
393 613 411 12 11 22 31 22 45 0 14 -35 75 -85 146 -109 156 -121 169 -154
164 -25 -4 -229 -136 -1143 -741 -439 -290 -445 -295 -417 -349 23 -44 182
-259 201 -273 11 -7 28 -11 37 -7 17 6 344 217 535 345 114 76 121 79 134 61
8 -10 212 -320 454 -689 241 -368 636 -969 876 -1335 240 -365 437 -670 437
-676 0 -7 -43 -45 -95 -85 -52 -40 -182 -140 -288 -221 l-192 -148 -988 2
c-984 3 -987 3 -1033 24 -63 29 -120 83 -149 141 l-25 48 -3 642 -2 643 -1668
2 -1667 3 -3 2668 -3 2667 2064 0 2064 0 91 -187z m-4206 -5720 c196 -92 286
-318 208 -526 -73 -196 -302 -304 -502 -236 -118 39 -204 113 -252 214 -107
223 2 478 243 571 24 9 70 13 136 11 88 -2 108 -6 167 -34z"/>
<path d="M5085 12285 c-77 -14 -98 -21 -197 -67 -40 -18 -68 -37 -68 -46 0
-21 117 -624 205 -1062 41 -201 115 -574 166 -830 50 -256 94 -475 96 -487 l5
-23 1255 0 1255 0 -4 193 c-3 172 -5 197 -25 239 -30 66 -105 143 -172 175
l-56 28 -861 3 -861 3 -82 407 c-44 224 -117 592 -161 817 -44 226 -86 426
-92 445 -27 84 -97 153 -194 189 -71 27 -130 31 -209 16z"/>
<path d="M12270 7579 c-276 -35 -531 -171 -697 -372 -201 -243 -282 -492 -261
-799 9 -143 39 -252 103 -383 156 -322 436 -539 778 -606 486 -95 973 149
1188 596 151 313 151 647 -1 961 -202 418 -650 661 -1110 603z m318 -380 c210
-53 402 -221 485 -426 41 -100 52 -162 52 -288 0 -98 -4 -134 -23 -195 -66
-209 -200 -367 -387 -456 -109 -52 -184 -68 -315 -68 -136 0 -207 17 -330 77
-116 56 -247 185 -307 302 -70 137 -88 210 -87 360 0 111 4 141 26 207 41 123
92 204 187 298 191 189 436 255 699 189z"/>
<path d="M12322 6725 c-171 -53 -223 -287 -91 -412 95 -90 255 -87 346 7 50
52 68 96 68 175 0 59 -4 78 -28 117 -62 105 -178 150 -295 113z"/>
<path d="M3504 7076 c-271 -62 -503 -274 -594 -543 -29 -86 -34 -114 -38 -228
-5 -144 14 -249 62 -359 77 -175 245 -344 414 -418 199 -87 449 -90 644 -9
195 82 368 260 446 461 74 190 69 440 -12 625 -66 148 -221 319 -352 387 -127
66 -222 90 -374 94 -91 2 -155 -1 -196 -10z m350 -295 c149 -53 275 -178 327
-326 27 -75 36 -210 19 -288 -19 -96 -81 -205 -154 -275 -204 -197 -524 -199
-726 -6 -117 111 -170 236 -170 396 1 243 157 447 393 513 74 21 233 14 311
-14z"/>
<path d="M3590 6429 c-118 -68 -118 -243 1 -309 94 -52 208 -19 250 73 42 94
8 195 -83 243 -40 21 -126 17 -168 -7z"/>
</g>
</svg>
