<?xml version="1.0" encoding="utf-8" ?><svg xmlns="http://www.w3.org/2000/svg" xmlns:xlink="http://www.w3.org/1999/xlink" width="1024" height="1024" viewBox="0 0 1024 1024"><path fill="white" d="M0 0L1024 0L1024 1024L0 1024L0 0Z"/><path d="M709.933 476.613C724.204 475.334 741.682 476.603 756.24 476.28C771.642 476.647 787.613 475.375 802.869 477.382C820.582 479.712 829.546 500.44 837.697 514.03L858.499 548.759L883.373 589.618C888.612 598.115 893.831 606.614 899.034 615.129C907.016 628.192 905.358 643.362 905.578 658.065C905.806 673.313 905.14 688.719 905.882 703.994L870.238 704.038C869.904 710.304 870.059 717.969 870.037 724.341C854.885 724.065 839.333 724.704 824.284 724.106C822.764 722.214 821.115 720.496 819.464 718.718C806.703 706.447 790.779 701.666 773.486 706.23C759.546 709.963 747.656 719.075 740.428 731.566C731.894 746.383 732.998 759.902 737.227 775.616C734.348 775.95 731.297 775.726 728.618 775.996C683.835 780.508 691.028 754.48 691.033 720.014L691.181 643.254L691.338 548.648C691.35 531.853 691.229 515.04 691.542 498.252C691.77 486.033 698.096 479.062 709.933 476.613Z"/><path fill="white" d="M731.11 495.173C741.802 494.462 755.907 495.241 766.998 494.993C777.77 495.073 788.643 494.639 799.359 495.607C807.993 496.387 813.388 509.153 817.508 515.99L833.458 542.347L859.325 585.415C860.897 588.005 869.727 600.978 869.446 602.695L867.625 602.928L779.35 603L748.799 603.038C742.488 603.043 734.975 603.234 728.774 602.627C727.642 596.933 728.074 584.429 728.084 578.007L728.097 535.847C728.084 524.26 727.735 510.468 728.291 498.742C728.37 497.087 729.819 496.056 731.11 495.173Z"/><path d="M644.35 644.528C644.922 648.541 644.686 662.847 644.635 667.723C644.576 673.252 644.982 687.76 644.314 692.665L681.442 692.521C681.398 713.062 681.028 734.645 681.445 755.11C659.745 755.11 631.736 754.228 610.86 755.716C608.526 757.298 601.744 755.15 597.629 757.014C603.879 756.957 610.464 756.753 616.673 757.218C616.582 763.141 616.549 769.064 616.574 774.987L553.49 775.027C553.524 769.235 553.435 762.91 553.622 757.16L554.048 755.504C545.036 754.956 535.148 755.147 526.05 755.149L482.757 755.173L355.634 754.997C355.608 750.252 354.944 745.531 353.661 740.963C352.066 735.267 350.105 731.266 346.61 726.364C319.949 688.977 260.611 702.325 253.646 747.719C253.327 749.794 253.21 752.647 252.191 754.498L250.034 754.431C249.36 754.012 248.484 753.581 248.383 752.716C247.271 742.715 243.854 733.155 237.69 725.096C220.239 702.276 187.52 697.611 164.753 715.379C151.217 725.944 146.643 738.631 144.637 755.018C136.879 755.078 129.373 755.174 123.262 749.361C120.827 747.021 119.093 744.049 118.253 740.778C116.316 733.52 117.1 702.52 117.025 692.976L116.991 690.957L117.037 668.489L147.189 668.325C151.776 668.297 160.151 668 164.364 668.555C165.169 669.67 164.873 670.076 164.915 671.76C165.312 678.237 165.126 685.814 165.101 692.39C189.636 692.789 214.493 692.189 239.024 692.401C248.681 692.484 264.517 691.797 273.642 692.58L443.311 692.586C474.103 692.584 506.931 693.183 537.49 692.547C537.212 691.669 537.415 691.521 537.603 690.441C537.191 675.713 537.511 659.498 537.497 644.655C571.945 645.419 609.888 645.139 644.35 644.528Z"/><path d="M644.35 644.528C644.922 648.541 644.686 662.847 644.635 667.723C644.576 673.252 644.982 687.76 644.314 692.665C636.276 692.337 628.121 693.105 620.187 692.863C596.825 692.149 571.523 694.211 548.349 692.514C545.56 690.104 541.221 691.678 538.026 690.542L537.603 690.441C537.191 675.713 537.511 659.498 537.497 644.655C571.945 645.419 609.888 645.139 644.35 644.528Z"/><path fill="#A7A7A9" d="M644.35 644.528C644.922 648.541 644.686 662.847 644.635 667.723C644.576 673.252 644.982 687.76 644.314 692.665C636.276 692.337 628.121 693.105 620.187 692.863C596.825 692.149 571.523 694.211 548.349 692.514C545.56 690.104 541.221 691.678 538.026 690.542C572.106 689.931 610.196 690.077 644.221 690.658C643.832 678.123 644.202 665.567 644.108 653.029C644.087 650.191 644.123 647.358 644.35 644.528Z"/><path d="M597.629 757.014C603.879 756.957 610.464 756.753 616.673 757.218C616.582 763.141 616.549 769.064 616.574 774.987L553.49 775.027C553.524 769.235 553.435 762.91 553.622 757.16C567.736 756.712 583.4 757.024 597.629 757.014Z"/><path d="M117.037 668.489L147.189 668.325C151.776 668.297 160.151 668 164.364 668.555C165.169 669.67 164.873 670.076 164.915 671.76C164.491 678.116 164.733 684.618 164.622 690.998C148.46 690.974 133.23 690.719 116.991 690.957L117.037 668.489Z"/><path fill="#A7A7A9" d="M164.622 690.998C164.733 684.618 164.491 678.116 164.915 671.76C165.312 678.237 165.126 685.814 165.101 692.39C189.636 692.789 214.493 692.189 239.024 692.401C248.681 692.484 264.517 691.797 273.642 692.58C258.025 693.612 233.679 692.889 217.269 692.918L117.025 692.976L116.991 690.957C133.23 690.719 148.46 690.974 164.622 690.998Z"/><path fill="#D6D2D1" d="M554.048 755.504C569.609 756.679 594.103 755.477 610.86 755.716C608.526 757.298 601.744 755.15 597.629 757.014C583.4 757.024 567.736 756.712 553.622 757.16L554.048 755.504Z"/><path fill="#D6D2D1" d="M537.603 690.441L538.026 690.542C541.221 691.678 545.56 690.104 548.349 692.514L537.49 692.547C537.212 691.669 537.415 691.521 537.603 690.441Z"/><path d="M226.561 184.955C235.844 188.398 258.909 200.808 268.489 205.722L354.357 250.224L471.165 310.579C487.607 318.881 503.999 327.281 520.341 335.779C528.496 340.023 537.446 344.467 545.306 349.088C545.988 354.257 535.39 360.066 532.684 364.175C528.725 370.189 528.348 377.967 529.123 384.913C529.532 388.567 530.294 392.173 531.397 395.681C524.38 391.261 512.655 385.77 504.857 381.747L453.891 355.535C424.029 340.245 394.251 324.791 364.558 309.175C340.797 296.912 316.163 284.684 292.662 272.094C290.483 270 254.678 252.715 249.705 250.331C242.007 246.694 234.384 242.902 226.84 238.957C226.088 222.106 226.662 202.081 226.561 184.955Z"/><path d="M567.057 432.191C585.152 440.353 597.179 438.935 614.908 432.343C615.552 456.02 615.146 481.569 615.141 505.359L615.006 630.25C615.053 632.104 615.269 633.332 614.499 635.008C612.423 635.411 602.9 635.108 600.179 635.097L566.922 634.988L567.057 432.191Z"/><path d="M191.469 713.59C216.431 710.819 238.9 728.842 241.611 753.811C244.321 778.78 226.242 801.205 201.267 803.854C176.378 806.494 154.048 788.492 151.347 763.609C148.646 738.727 166.593 716.352 191.469 713.59Z"/><path fill="white" d="M191.226 727.756C208.272 724.777 224.496 736.21 227.424 753.264C230.353 770.319 218.872 786.509 201.809 789.386C184.817 792.252 168.709 780.83 165.793 763.846C162.877 746.863 174.252 730.722 191.226 727.756Z"/><path d="M194.116 749.715C198.93 748.467 203.848 751.341 205.126 756.147C206.403 760.953 203.559 765.889 198.761 767.195C193.921 768.513 188.933 765.64 187.645 760.792C186.357 755.944 189.26 750.974 194.116 749.715Z"/><path d="M301.008 713.675C325.919 711.135 348.174 729.262 350.727 754.171C353.28 779.08 335.164 801.345 310.256 803.91C285.331 806.477 263.046 788.346 260.492 763.419C257.937 738.492 276.08 716.217 301.008 713.675Z"/><path fill="white" d="M301.181 727.854C318.3 725.397 334.154 737.33 336.53 754.46C338.907 771.591 326.902 787.389 309.76 789.686C292.731 791.968 277.059 780.058 274.698 763.04C272.336 746.021 284.173 730.294 301.181 727.854Z"/><path d="M304.519 749.69C309.435 749.259 313.78 752.87 314.257 757.782C314.734 762.694 311.164 767.073 306.256 767.595C301.284 768.124 296.835 764.497 296.352 759.52C295.869 754.543 299.537 750.127 304.519 749.69Z"/><path d="M780.867 715.174C805.749 711.926 828.534 729.517 831.688 754.412C834.842 779.306 817.165 802.023 792.259 805.083C767.486 808.127 744.916 790.564 741.778 765.803C738.641 741.042 756.118 718.405 780.867 715.174Z"/><path fill="white" d="M785.454 728.806C802.607 728.108 817.098 741.408 817.869 758.558C818.64 775.708 805.402 790.255 788.255 791.099C771.005 791.948 756.351 778.613 755.575 761.359C754.799 744.105 768.197 729.508 785.454 728.806Z"/><path d="M785.449 750.756C788.703 750.442 791.872 751.915 793.729 754.606C795.586 757.297 795.839 760.782 794.391 763.713C792.942 766.644 790.02 768.561 786.755 768.72C781.868 768.96 777.684 765.255 777.329 760.376C776.975 755.497 780.579 751.226 785.449 750.756Z"/><path d="M589.305 338.178C614.012 336.959 634.998 356.068 636.092 380.782C637.187 405.495 617.972 426.384 593.254 427.355C568.71 428.318 548.001 409.269 546.914 384.731C545.827 360.192 564.772 339.388 589.305 338.178Z"/><path fill="white" d="M587.349 357.225C601.613 355.032 614.927 364.896 616.984 379.18C619.041 393.465 609.052 406.684 594.748 408.605C580.636 410.5 567.632 400.673 565.602 386.58C563.573 372.487 573.276 359.389 587.349 357.225Z"/><path d="M839.927 734.544L880.641 734.479C887.893 734.458 895.178 734.231 902.316 734.714C913.829 735.368 912.882 744.804 912.57 753.401C912.29 761.106 914.675 767.613 908.476 773.694C902.441 777.111 888.625 776.042 881.543 776.026L841.753 775.918C844.689 759.637 845.275 750.233 839.927 734.544Z"/><path d="M249.705 250.331C254.678 252.715 290.483 270 292.662 272.094L292.798 274.704C289.796 279.715 286.274 286.034 282.804 290.595C280.966 289.613 278.986 288.346 277.187 287.254C274.699 297.795 273.218 311.336 269.514 321.096C266.624 328.71 244.434 321.449 238.844 318.133C237.965 309.444 242.449 286.397 245.039 277.547C248.723 277.349 252.407 277.17 256.093 277.012C250.582 273.602 244.043 270.165 238.322 266.92C239.773 263.708 245.665 252.172 248.57 250.972L249.705 250.331Z"/><path fill="#D6D2D1" d="M249.705 250.331C254.678 252.715 290.483 270 292.662 272.094L292.798 274.704C289.141 271.668 280.137 267.212 275.737 264.937L248.57 250.972L249.705 250.331Z"/><path d="M251.845 327.805C254.653 328.117 261.263 328.51 263.431 329.906C264.306 336.284 273.031 333.903 278.283 340.271C293.44 358.649 280.713 382.979 257.108 380.481C252.181 379.96 248.957 377.234 246.132 373.277C243.316 368.457 243.072 362.266 241.895 356.491L242.245 356.146C243.427 356.805 243.205 357.351 243.75 359.127C244.553 358.492 244.13 358.796 245.022 358.219C247.066 364.375 249.316 372.327 257.416 372.059C264.93 371.811 271.151 366.001 270.379 358.243C269.721 351.631 263.015 347.55 258.49 343.536C251.995 338.203 252.512 335.714 251.845 327.805Z"/></svg>