<?xml version="1.0" encoding="utf-8" ?><svg xmlns="http://www.w3.org/2000/svg" xmlns:xlink="http://www.w3.org/1999/xlink" width="678" height="660" viewBox="0 0 678 660"><clipPath id="cl_3"><rect x="-0.00026702881" y="1.5258789e-05" width="677.99994" height="660"/></clipPath><g clip-path="url(#cl_3)"><path fill="#FEC32F" transform="matrix(1.02727 0 0 1.02644 -127.382 -137.543)" d="M443.236 158.136C605.786 153.116 741.649 280.776 746.747 443.322C751.846 605.868 624.252 741.792 461.707 746.97C299.05 752.152 163.011 624.451 157.908 461.793C152.806 299.134 280.574 163.159 443.236 158.136Z"/><path fill="#212020" transform="matrix(1.02727 0 0 1.02644 -127.382 -137.543)" d="M569.97 417.136C586.133 416.454 603.704 417.213 619.929 417.081C626.03 417.031 633.22 418.321 637.071 423.292C644.992 433.519 652.51 447.044 659.311 458.151C668.197 472.839 677.31 487.495 686.054 502.252C693.457 514.744 691.747 521.786 691.72 535.751C691.704 544.221 691.957 552.453 691.637 560.994C684.56 561.081 676.185 560.831 669.32 561.439C669.508 565.448 669.606 569.46 669.613 573.473C660.322 573.79 651.023 573.745 641.735 573.338C640.404 572.333 639.031 571.176 637.726 570.119C630.75 564.238 624.387 561.104 615.031 561.44C605.962 561.765 597.389 566.206 591.297 572.813C582.263 582.61 583.223 593.18 583.801 605.453C552.225 610.65 556.825 594.299 556.754 570.421L556.666 526.787L556.584 465.235C556.582 453.047 556.476 440.812 557.172 428.645C557.652 420.258 562.412 417.924 569.97 417.136Z"/><path fill="#FEC32F" transform="matrix(1.02727 0 0 1.02644 -127.382 -137.543)" d="M579.517 428.403C588.738 428.099 597.962 427.906 607.188 427.823C613.876 427.755 621.247 427.499 627.829 428.458C629.61 430.584 630.68 431.898 632.212 434.203C633.967 436.424 639.076 444.171 640.192 446.84C642.509 450.379 644.73 453.979 646.853 457.636C648.523 460.407 650.767 463.886 652.279 466.659C655.089 471.339 668.851 492.554 669.604 495.718C668.62 496.621 667.39 496.539 665.986 496.691L609.82 496.865C600.166 496.866 589.084 497.091 579.537 496.511C578.883 486.634 579.124 476.154 579.096 466.23C579.061 453.627 578.967 440.992 579.517 428.403Z"/><path fill="#F1A103" transform="matrix(1.02727 0 0 1.02644 -127.382 -137.543)" d="M652.279 466.659C655.089 471.339 668.851 492.554 669.604 495.718C668.62 496.621 667.39 496.539 665.986 496.691C666.514 491.096 662.552 487.589 659.722 483.039C656.842 478.41 653.871 473.982 651.711 468.938L652.279 466.659Z"/><path fill="#FEB910" transform="matrix(1.02727 0 0 1.02644 -127.382 -137.543)" d="M632.212 434.203C633.967 436.424 639.076 444.171 640.192 446.84L639.338 448.731C636.159 444.23 633.003 439.73 632.212 434.203Z"/><path fill="#FEB910" transform="matrix(1.02727 0 0 1.02644 -127.382 -137.543)" d="M644.602 457.412L646.853 457.636C648.523 460.407 650.767 463.886 652.279 466.659L651.711 468.938C648.692 464.429 647.161 462.296 644.602 457.412Z"/><path fill="#F1A103" transform="matrix(1.02727 0 0 1.02644 -127.382 -137.543)" d="M640.192 446.84C642.509 450.379 644.73 453.979 646.853 457.636L644.602 457.412C642.334 454.638 640.96 451.901 639.338 448.731L640.192 446.84Z"/><path fill="#212020" transform="matrix(1.02727 0 0 1.02644 -127.382 -137.543)" d="M459.514 522.642C473.205 522.689 486.861 522.761 500.552 522.921C509.128 523.021 517.974 522.212 526.579 523.024C526.804 533.318 527.111 542.705 526.446 552.982C527.624 554.019 529.345 554.021 530.965 554.243C536.367 554.357 544.119 552.993 548.953 554.522C550.867 557.564 549.835 586.909 549.697 592.574C537.726 593.822 520.943 592.767 508.036 593.393C508.074 597.398 508.288 601.103 508.525 605.094C494.796 605.482 483.036 605.434 469.359 605.144C469.418 601.141 469.611 597.577 469.869 593.598C429.268 591.554 386.083 593.672 345 592.876C342.437 583.312 339.432 574.028 331.348 567.523C315.687 554.922 288.056 560.401 281.737 580.518C280.621 584.074 279.716 588.898 277.423 591.772C277.228 591.776 277.032 591.78 276.837 591.784C276.249 590.226 274.933 585.505 274.466 584.061C272.32 577.42 269.105 571.731 263.388 567.529C255.861 561.996 247.239 559.938 237.875 561.296C226.803 562.878 216.484 570.106 212.631 580.823C211.355 584.372 211.346 593.52 206.007 593.427C199.642 593.316 194.297 586.827 193.34 580.799C192.227 573.794 192.883 566.445 193.007 559.381C193.104 552.282 193.099 545.319 193.102 538.288C203.099 538.261 213.095 538.171 223.091 538.018C223.193 542.369 223 547.451 222.924 551.848L223.543 554.34C236.848 553.385 253.006 554.303 266.78 554.179C304.071 553.879 341.363 553.801 378.654 553.944C384.903 553.365 396.452 553.883 403.21 553.816C421.726 553.631 440.545 554.239 459.057 553.809C459.006 551.115 458.999 548.42 459.037 545.726C458.998 538.029 459.157 530.331 459.514 522.642Z"/><path fill="#212020" transform="matrix(1.02727 0 0 1.02644 -127.382 -137.543)" d="M459.514 522.642C473.205 522.689 486.861 522.761 500.552 522.921C509.128 523.021 517.974 522.212 526.579 523.024C526.804 533.318 527.111 542.705 526.446 552.982C523.349 552.386 510.224 553.052 505.837 553.083C490.368 553.322 474.895 553.152 459.435 552.574C459.424 549.854 459.382 548.422 459.037 545.726C458.998 538.029 459.157 530.331 459.514 522.642Z"/><path fill="#A8620B" transform="matrix(1.02727 0 0 1.02644 -127.382 -137.543)" d="M459.037 545.726C459.382 548.422 459.424 549.854 459.435 552.574C474.895 553.152 490.368 553.322 505.837 553.083C510.224 553.052 523.349 552.386 526.446 552.982C527.624 554.019 529.345 554.021 530.965 554.243C504.244 555.614 475.196 554.452 448.361 554.331L403.532 554.21C395.84 554.186 386.233 554.403 378.654 553.944C384.903 553.365 396.452 553.883 403.21 553.816C421.726 553.631 440.545 554.239 459.057 553.809C459.006 551.115 458.999 548.42 459.037 545.726Z"/><path fill="#A8620B" transform="matrix(1.02727 0 0 1.02644 -127.382 -137.543)" d="M192.004 553.751C200.43 551.547 213.569 552.582 222.924 551.848L223.543 554.34C214.883 555.033 200.138 555.539 192.004 553.751Z"/><path fill="#212020" transform="matrix(1.02727 0 0 1.02644 -127.382 -137.543)" d="M262.977 233.02C271.076 236.421 280.366 241.764 288.334 245.899L334.05 269.611C377.425 292.552 421.07 314.978 464.978 336.883C462.558 339.035 459.025 341.994 456.971 344.357C456.54 349.505 455.466 358.177 454.663 363.344L454.328 363.884C451.322 363.885 437.722 356.054 434.136 354.25C412.673 343.554 391.324 332.628 370.094 321.476C348.473 310.352 326.52 300.169 305.303 288.185C304.279 288.644 303.34 288.956 302.49 289.641C297.834 284.962 282.717 277.341 276.408 274.325L276.86 273.501C271.778 271.487 267.444 270.037 263.009 266.78C261.921 258.136 262.126 241.815 262.977 233.02Z"/><path fill="#674410" transform="matrix(1.02727 0 0 1.02644 -127.382 -137.543)" d="M276.86 273.501C282.814 275.508 300.886 284.169 305.303 288.185C304.279 288.644 303.34 288.956 302.49 289.641C297.834 284.962 282.717 277.341 276.408 274.325L276.86 273.501Z"/><path fill="#FEB910" transform="matrix(1.02727 0 0 1.02644 -127.382 -137.543)" d="M456.971 344.357C456.54 349.505 455.466 358.177 454.663 363.344C452.22 354.867 451.643 351.781 456.971 344.357Z"/><path fill="#212020" transform="matrix(1.02727 0 0 1.02644 -127.382 -137.543)" d="M477.974 389.92C490.526 392.602 495.439 392.481 507.683 389.897C508.771 398.622 507.916 420.287 507.965 430.258C508.381 459.065 508.353 487.878 507.88 516.685C501.889 517.829 484.578 517.464 477.925 517.122C476.994 490.103 477.627 462.851 477.764 435.816C477.843 420.334 477.587 405.457 477.974 389.92Z"/><path fill="#212020" transform="matrix(1.02727 0 0 1.02644 -127.382 -137.543)" d="M241.063 566.661C256.793 565.459 270.521 577.232 271.732 592.962C272.942 608.691 261.176 622.426 245.447 623.644C229.706 624.864 215.959 613.088 214.747 597.346C213.536 581.604 225.32 567.863 241.063 566.661Z"/><path fill="#FEC32F" transform="matrix(1.02727 0 0 1.02644 -127.382 -137.543)" d="M240.623 575.55C251.432 574.137 261.368 581.677 262.915 592.467C264.463 603.258 257.046 613.287 246.275 614.968C239.189 616.074 232.055 613.283 227.6 607.662C223.145 602.04 222.057 594.457 224.753 587.811C227.448 581.164 233.511 576.481 240.623 575.55Z"/><path fill="#212020" transform="matrix(1.02727 0 0 1.02644 -127.382 -137.543)" d="M241.619 588.612C249.651 589.097 252.193 594.891 245.402 600.264C235.737 602.205 236.404 594.287 241.619 588.612Z"/><path fill="#212020" transform="matrix(1.02727 0 0 1.02644 -127.382 -137.543)" d="M612.572 567.939C628.178 565.365 642.906 575.957 645.431 591.571C647.956 607.185 637.318 621.879 621.696 624.356C606.143 626.821 591.528 616.239 589.014 600.695C586.5 585.15 597.035 570.501 612.572 567.939Z"/><path fill="#FEC32F" transform="matrix(1.02727 0 0 1.02644 -127.382 -137.543)" d="M613.231 576.81C623.976 574.72 634.387 581.713 636.518 592.45C638.648 603.186 631.696 613.625 620.967 615.796C610.18 617.98 599.673 610.981 597.531 600.186C595.389 589.391 602.428 578.91 613.231 576.81Z"/><path fill="#212020" transform="matrix(1.02727 0 0 1.02644 -127.382 -137.543)" d="M616.182 588.134C623.844 591.337 626.62 595.053 618.91 600.44C615.932 600.576 611.625 600.418 611.557 596.188C611.5 592.658 613.911 590.528 616.182 588.134Z"/><path fill="#212020" transform="matrix(1.02727 0 0 1.02644 -127.382 -137.543)" d="M309.07 566.683C324.698 564.943 338.789 576.172 340.579 591.794C342.369 607.416 331.184 621.543 315.567 623.382C299.881 625.23 285.677 613.984 283.879 598.292C282.08 582.599 293.372 568.431 309.07 566.683Z"/><path fill="#FEB910" transform="matrix(1.02727 0 0 1.02644 -127.382 -137.543)" d="M309.622 575.535C320.525 574.078 330.539 581.751 331.969 592.657C333.4 603.563 325.704 613.559 314.794 614.963C303.921 616.363 293.966 608.698 292.54 597.829C291.115 586.959 298.756 576.986 309.622 575.535Z"/><path fill="#212020" transform="matrix(1.02727 0 0 1.02644 -127.382 -137.543)" d="M310.314 588.549C315.788 588.999 317.74 592.058 319.628 596.678C318.123 597.975 316.975 598.651 315.312 599.689C306.281 603.062 304.24 595.152 310.314 588.549Z"/><path fill="#212020" transform="matrix(1.02727 0 0 1.02644 -127.382 -137.543)" d="M491.036 329.848C506.298 328.532 519.758 339.789 521.16 355.043C522.562 370.298 511.381 383.82 496.135 385.308C480.767 386.808 467.112 375.518 465.699 360.142C464.285 344.766 475.652 331.176 491.036 329.848Z"/><path fill="#FEC32F" transform="matrix(1.02727 0 0 1.02644 -127.382 -137.543)" d="M490.553 341.163C499.609 339.592 508.22 345.673 509.768 354.733C511.317 363.793 505.214 372.388 496.15 373.914C487.118 375.434 478.56 369.357 477.017 360.329C475.475 351.302 481.529 342.728 490.553 341.163Z"/><path fill="#212020" transform="matrix(1.02727 0 0 1.02644 -127.382 -137.543)" d="M656.96 579.68C666.325 579.446 684.031 578.57 693.441 581.073C697.241 582.083 697.291 601.435 694.938 604.398C694.088 605.467 693.432 605.319 692.142 605.531C681.923 605.874 662.301 606.381 652.477 605.532C653.134 593.156 652.417 591.685 651.56 579.962L656.96 579.68Z"/><path fill="#212020" transform="matrix(1.02727 0 0 1.02644 -127.382 -137.543)" d="M276.408 274.325C282.717 277.341 297.834 284.962 302.49 289.641C302.083 293.537 301.015 295.351 299.14 298.63C297.027 298.286 294.487 298.165 292.323 297.999C292.302 303.168 291.933 307.842 291.099 313.011C289.859 320.7 287.452 320.829 280.331 319.643C276.95 319.08 272.769 318.55 270.34 315.895C268.952 312.29 271.102 303.739 272.012 299.736C273.546 292.991 273.888 292.843 279.38 289.454C268.926 283.65 268.662 283.354 276.408 274.325Z"/><path fill="#212020" transform="matrix(1.02727 0 0 1.02644 -127.382 -137.543)" d="M276.608 323.277C281.931 323.564 282.038 324.575 286.464 326.092C304.17 332.159 302.262 353.433 283.785 355.935C280.2 356.42 277.654 354.606 275.028 352.09C272.714 349.045 270.898 345.565 273.624 342.152C275.036 342.842 275.583 347.817 278.911 349.818C282.471 351.959 289.108 350.052 290.088 346.094C292.39 336.785 279.883 332.407 276.608 323.277Z"/></g></svg>