<?xml version="1.0" standalone="no"?>
<!DOCTYPE svg PUBLIC "-//W3C//DTD SVG 20010904//EN"
 "http://www.w3.org/TR/2001/REC-SVG-20010904/DTD/svg10.dtd">
<svg version="1.0" xmlns="http://www.w3.org/2000/svg"
 width="1024.000000pt" height="1024.000000pt" viewBox="0 0 1024.000000 1024.000000"
 preserveAspectRatio="xMidYMid meet">

<g transform="translate(0.000000,1024.000000) scale(0.100000,-0.100000)"
fill="#000000" stroke="none">
<path d="M2560 7631 c0 -265 -10 -239 117 -300 l69 -33 -38 -74 c-22 -41 -36
-79 -33 -85 4 -5 31 -22 61 -36 30 -14 54 -29 54 -33 0 -5 -16 -14 -35 -20
-19 -6 -39 -19 -44 -28 -4 -9 -18 -84 -31 -165 l-23 -148 29 -24 c16 -12 60
-31 99 -40 85 -22 141 -15 155 18 17 41 62 268 56 284 -5 12 1 14 31 9 38 -7
38 -6 76 54 20 33 37 64 37 70 0 5 5 10 10 10 6 0 153 -72 328 -159 174 -87
651 -327 1060 -531 408 -205 744 -371 747 -369 2 3 -3 25 -11 49 -19 54 -14
151 9 195 17 33 45 64 101 113 20 18 34 37 31 42 -3 6 -151 83 -328 171 -177
89 -659 331 -1072 539 -412 208 -865 435 -1005 505 -140 70 -294 147 -342 171
-48 24 -92 44 -98 44 -6 0 -10 -78 -10 -229z"/>
<path d="M2764 6579 c9 -54 35 -90 102 -140 70 -52 90 -89 75 -140 -23 -78
-109 -105 -170 -53 -17 14 -31 34 -31 44 0 10 -5 31 -11 47 -11 28 -11 28 -20
5 -11 -30 4 -108 28 -141 50 -68 167 -80 247 -24 48 33 96 119 96 172 -1 77
-58 155 -138 186 -23 10 -47 26 -53 36 -5 11 -20 19 -35 19 -13 0 -41 7 -61
15 l-36 15 7 -41z"/>
<path d="M5723 6535 c-77 -21 -125 -48 -177 -100 -64 -64 -94 -120 -110 -203
-23 -119 -3 -215 62 -300 43 -57 65 -77 117 -107 96 -56 220 -69 320 -35 124
43 195 105 247 216 25 53 30 77 30 138 -1 120 -28 195 -100 277 -50 56 -137
104 -216 118 -76 14 -108 13 -173 -4z m191 -176 c80 -37 126 -110 126 -202 0
-70 -17 -112 -61 -154 -129 -122 -340 -68 -379 98 -34 140 74 279 217 279 33
0 70 -8 97 -21z"/>
<path d="M5598 4841 c-1 -490 -2 -901 -2 -913 l-1 -23 215 0 215 0 3 900 c1
495 0 905 -2 911 -3 8 -23 5 -63 -9 -96 -34 -238 -27 -345 18 -17 7 -18 -40
-20 -884z"/>
<path d="M6884 5319 c-75 -7 -125 -36 -150 -87 -18 -35 -19 -91 -22 -1212 -2
-646 0 -1194 3 -1218 7 -50 53 -108 102 -128 22 -10 77 -14 169 -14 l137 0 -7
33 c-27 128 -14 264 35 358 28 56 121 151 176 182 175 95 383 68 521 -67 l53
-51 167 2 c92 1 184 2 205 2 l37 1 0 85 0 85 108 2 c59 0 116 0 127 -1 11 -1
30 1 43 4 l22 5 0 328 c0 309 -1 332 -22 393 -20 59 -114 226 -214 379 -23 36
-80 128 -126 205 -47 77 -122 201 -168 275 -46 74 -105 171 -132 215 -60 99
-120 170 -161 191 -77 40 -138 45 -497 42 -190 -1 -373 -5 -406 -9z m845 -194
c17 -16 118 -174 224 -350 107 -176 224 -367 261 -425 36 -58 66 -111 66 -118
0 -10 -128 -12 -622 -10 l-623 3 -3 454 c-2 334 1 457 9 468 10 11 67 13 335
11 l324 -3 29 -30z"/>
<path d="M5345 3820 c-3 -5 -5 -102 -4 -215 l1 -205 -1665 -2 c-916 -2 -1669
1 -1673 5 -4 4 -2 7 4 7 8 0 12 30 12 100 0 55 -1 100 -2 101 -17 6 -418 7
-422 1 -4 -7 -9 -154 -6 -209 1 -13 0 -112 -1 -222 -1 -178 1 -203 18 -242 11
-24 29 -51 39 -61 25 -21 88 -38 144 -38 l45 0 13 68 c27 146 119 270 247 333
118 58 295 52 419 -14 117 -62 201 -179 230 -317 10 -53 16 -65 32 -65 15 0
20 10 25 50 17 131 89 249 192 316 78 50 142 69 236 69 137 0 240 -40 331
-129 75 -73 117 -159 135 -273 l6 -38 886 -2 885 -3 2 -85 1 -85 277 -3 278
-2 6 24 c3 14 4 52 2 85 -1 34 -3 62 -3 63 0 1 133 5 295 8 l295 5 0 270 0
270 -163 5 -164 5 -1 215 -2 215 -472 3 c-306 1 -474 -1 -478 -8z"/>
<path d="M2195 3207 c-204 -68 -331 -264 -296 -459 23 -134 106 -243 229 -301
61 -29 75 -32 167 -32 91 0 106 3 167 32 93 44 151 100 196 191 35 73 37 81
37 177 0 93 -2 105 -32 165 -41 84 -119 162 -201 202 -53 26 -78 32 -145 35
-50 2 -98 -2 -122 -10z m190 -134 c54 -18 130 -86 161 -144 28 -52 26 -180 -4
-237 -53 -99 -158 -158 -267 -149 -74 5 -130 32 -177 85 -49 54 -58 74 -68
144 -20 137 54 256 187 304 52 18 110 17 168 -3z"/>
<path d="M2207 2973 c-15 -14 -7 -43 12 -43 26 0 36 17 21 35 -14 16 -23 19
-33 8z"/>
<path d="M2374 2955 c-4 -9 -2 -21 4 -27 15 -15 44 -1 40 19 -4 23 -36 29 -44
8z"/>
<path d="M2236 2875 c-70 -65 18 -171 104 -125 26 14 44 73 31 99 -29 53 -92
66 -135 26z"/>
<path d="M2095 2850 c-9 -15 4 -30 26 -30 12 0 19 7 19 20 0 21 -33 29 -45 10z"/>
<path d="M2433 2803 c-21 -8 -15 -43 6 -43 11 0 23 5 27 11 8 14 -17 38 -33
32z"/>
<path d="M2144 2705 c-4 -9 -2 -21 4 -27 15 -15 44 -1 40 19 -4 23 -36 29 -44
8z"/>
<path d="M2324 2675 c-4 -9 -2 -21 4 -27 15 -15 44 -1 40 19 -4 23 -36 29 -44
8z"/>
<path d="M3166 3209 c-65 -16 -153 -69 -202 -121 -112 -120 -143 -301 -74
-446 145 -306 577 -309 727 -4 36 73 38 80 38 177 0 99 -1 104 -39 179 -69
135 -192 217 -334 222 -42 2 -94 -1 -116 -7z m174 -135 c72 -21 150 -98 175
-173 62 -188 -87 -376 -285 -358 -144 13 -242 121 -244 268 0 89 38 167 109
221 77 58 149 70 245 42z"/>
<path d="M3171 2966 c-16 -19 -6 -36 20 -36 15 0 20 6 17 22 -4 27 -21 33 -37
14z"/>
<path d="M3344 2949 c-3 -6 0 -17 7 -25 18 -17 44 -2 36 20 -7 18 -33 21 -43
5z"/>
<path d="M3199 2871 c-31 -32 -35 -50 -17 -84 22 -42 67 -58 113 -41 18 7 45
55 45 79 0 26 -55 75 -85 75 -16 0 -38 -12 -56 -29z"/>
<path d="M3060 2840 c0 -13 7 -20 20 -20 13 0 20 7 20 20 0 13 -7 20 -20 20
-13 0 -20 -7 -20 -20z"/>
<path d="M3384 2785 c-4 -9 -2 -21 4 -27 15 -15 44 -1 40 19 -4 23 -36 29 -44
8z"/>
<path d="M3104 2705 c-4 -9 -2 -21 4 -27 15 -15 44 -1 40 19 -4 23 -36 29 -44
8z"/>
<path d="M3293 2679 c-16 -16 -5 -39 19 -39 14 0 19 6 16 22 -4 25 -19 33 -35
17z"/>
<path d="M7466 3199 c-63 -15 -153 -69 -197 -116 -22 -24 -55 -74 -72 -111
-30 -62 -32 -75 -32 -172 0 -93 3 -112 26 -161 71 -151 233 -249 393 -236 100
8 178 40 246 104 172 159 184 401 28 568 -77 84 -170 127 -278 131 -41 2 -92
-1 -114 -7z m211 -147 c62 -32 96 -65 128 -124 54 -99 33 -233 -52 -320 -101
-103 -278 -103 -383 2 -50 50 -73 104 -78 182 -4 56 0 75 21 120 29 60 48 84
95 117 76 54 189 63 269 23z"/>
<path d="M7480 2951 c0 -22 21 -33 40 -21 18 11 4 40 -20 40 -13 0 -20 -7 -20
-19z"/>
<path d="M7661 2947 c-15 -15 -14 -34 2 -39 20 -8 37 2 37 22 0 22 -23 33 -39
17z"/>
<path d="M7510 2872 c-37 -37 -39 -74 -5 -107 44 -45 132 -23 136 33 4 58 -17
88 -68 98 -27 5 -37 1 -63 -24z"/>
<path d="M7373 2844 c-6 -17 14 -36 32 -31 6 2 11 13 13 25 3 17 -2 22 -18 22
-11 0 -23 -7 -27 -16z"/>
<path d="M7704 2785 c-4 -9 -2 -21 4 -27 15 -15 44 -1 40 19 -4 23 -36 29 -44
8z"/>
<path d="M7424 2695 c-4 -9 -2 -21 4 -27 15 -15 44 -1 40 19 -4 23 -36 29 -44
8z"/>
<path d="M7600 2675 c-10 -12 -10 -18 0 -29 16 -20 42 -8 38 17 -4 26 -21 32
-38 12z"/>
<path d="M8030 3024 c0 -3 7 -31 16 -62 13 -44 16 -83 11 -179 l-5 -123 288 0
289 0 28 24 c27 23 28 28 31 136 4 130 1 146 -33 183 l-26 27 -299 0 c-165 0
-300 -3 -300 -6z"/>
</g>
</svg>
