<?xml version="1.0" standalone="no"?>
<!DOCTYPE svg PUBLIC "-//W3C//DTD SVG 20010904//EN"
 "http://www.w3.org/TR/2001/REC-SVG-20010904/DTD/svg10.dtd">
<svg version="1.0" xmlns="http://www.w3.org/2000/svg"
 width="1952.000000pt" height="2200.000000pt" viewBox="0 0 1952.000000 2200.000000"
 preserveAspectRatio="xMidYMid meet">

<g transform="translate(0.000000,2200.000000) scale(0.100000,-0.100000)"
fill="#000000" stroke="none">
<path d="M14410 17248 c-48 -26 -50 -39 -50 -414 0 -293 -2 -354 -14 -363 -8
-7 -45 -17 -81 -22 -132 -18 -135 -26 -135 -319 l0 -220 -185 0 c-204 0 -250
-9 -260 -52 -3 -13 -6 -75 -8 -138 l-2 -115 -93 -9 c-57 -5 -97 -5 -102 0 -6
6 -21 73 -35 149 -79 431 -129 674 -147 712 -25 53 -84 106 -137 121 -54 17
-149 15 -203 -4 -58 -19 -122 -74 -151 -128 -20 -38 -22 -58 -27 -279 l-5
-239 -26 -22 c-14 -12 -227 -109 -475 -215 -247 -107 -890 -385 -1429 -618
-539 -234 -1234 -534 -1545 -668 -550 -236 -769 -331 -1975 -855 -1094 -475
-1411 -613 -1775 -772 -201 -88 -617 -269 -925 -403 -2102 -911 -2134 -926
-2234 -992 -48 -32 -130 -101 -186 -157 -146 -147 -245 -303 -309 -491 l-31
-90 -55 -8 c-143 -21 -237 -71 -277 -146 l-23 -44 0 -1013 0 -1012 -51 -17
c-29 -10 -69 -33 -90 -52 -63 -57 -69 -92 -69 -418 0 -270 1 -283 21 -308 11
-15 82 -60 157 -102 122 -67 143 -75 190 -75 84 0 92 8 92 91 0 244 64 513
181 759 231 485 651 837 1154 970 147 39 209 49 367 60 550 39 1118 -199 1468
-617 269 -322 406 -663 444 -1108 7 -79 15 -148 19 -152 4 -4 34 -9 66 -11
l59 -4 4 -172 c4 -131 9 -180 22 -211 21 -50 60 -91 108 -116 36 -18 83 -19
1669 -19 1257 0 1641 3 1673 12 54 16 128 90 144 144 7 24 12 101 12 185 0 79
4 149 8 155 4 6 30 23 58 38 67 36 123 83 134 111 5 12 14 76 20 141 53 541
305 1008 710 1313 328 248 692 371 1097 371 316 0 600 -65 853 -196 57 -30
115 -54 128 -54 14 0 38 14 58 34 74 74 32 134 -168 246 l-117 65 -3 155 -3
155 -240 -1 c-231 -1 -243 -2 -330 -28 -49 -15 -130 -47 -179 -72 -78 -38 -97
-44 -155 -44 -128 -1 -368 -42 -520 -89 l-63 -20 -162 29 c-88 16 -402 72
-696 124 -294 52 -576 102 -627 111 l-91 17 -135 272 c-309 621 -651 1149
-936 1445 l-81 84 43 46 c23 25 150 162 282 305 132 142 248 270 257 285 22
32 23 63 4 99 -14 28 -14 29 126 182 204 224 526 558 578 599 25 20 111 65
190 100 80 35 388 173 685 306 297 133 693 310 880 393 187 83 576 257 865
387 289 130 631 284 760 342 129 58 377 170 552 249 430 194 417 189 430 176
6 -6 24 -59 40 -119 32 -119 58 -161 115 -189 34 -17 67 -19 323 -22 206 -2
287 -6 292 -15 4 -7 8 -28 8 -48 0 -74 37 -165 88 -217 68 -70 136 -94 267
-93 213 1 2788 182 2880 202 66 15 183 76 203 107 14 22 14 27 1 51 -32 57 47
54 -1479 55 l-1405 1 -5 1202 -5 1202 -23 23 c-20 20 -34 23 -125 26 -69 2
-110 -2 -127 -10z m-6128 -4505 c-71 -76 -142 -153 -157 -170 -22 -27 -30 -31
-45 -23 -24 13 -53 13 -83 -1 -14 -6 -161 -165 -328 -353 l-302 -342 -83 33
c-178 72 -206 76 -563 82 l-324 6 239 107 c131 59 446 200 699 314 253 114
564 253 690 309 127 57 264 119 305 139 41 19 77 35 78 36 2 0 -55 -62 -126
-137z m-1259 -1111 c96 -27 222 -85 319 -147 273 -177 674 -736 1024 -1428
l95 -188 -33 5 c-32 6 -560 62 -1558 166 -659 69 -1686 179 -1733 187 -27 4
-39 11 -43 27 -2 11 -3 282 -2 601 3 565 4 581 24 626 42 91 115 150 207 169
23 4 398 7 832 6 779 -2 791 -2 868 -24z m-2279 -664 c-6 -231 -8 -255 -26
-274 -21 -24 -332 -236 -687 -470 -244 -161 -310 -192 -376 -180 -97 18 -855
272 -855 287 0 7 286 140 599 279 322 142 1251 562 1348 609 2 0 0 -113 -3
-251z"/>
<path d="M10988 9175 c-556 -79 -1016 -413 -1254 -909 -261 -544 -205 -1189
144 -1662 267 -363 633 -590 1067 -664 113 -19 154 -22 315 -17 280 8 423 43
675 167 457 225 780 655 882 1175 27 141 25 456 -5 595 -114 529 -425 936
-891 1170 -86 43 -281 107 -399 131 -129 26 -400 34 -534 14z m497 -629 c184
-55 333 -144 457 -274 88 -93 135 -162 194 -286 74 -156 88 -223 88 -426 1
-153 -2 -186 -22 -260 -97 -355 -364 -626 -727 -737 -84 -25 -102 -27 -270
-27 -167 0 -186 2 -270 28 -217 66 -416 203 -547 376 -66 86 -151 265 -178
370 -115 462 115 954 545 1168 169 83 262 103 475 98 144 -3 177 -7 255 -30z"/>
<path d="M11069 8032 c-91 -31 -157 -72 -221 -141 -112 -119 -156 -271 -125
-426 23 -110 59 -179 136 -256 76 -76 145 -112 251 -135 349 -73 657 246 575
595 -35 147 -128 262 -269 332 -82 40 -91 42 -189 46 -79 2 -114 -1 -158 -15z"/>
<path d="M3400 9124 c-364 -46 -678 -191 -933 -434 -501 -475 -646 -1243 -352
-1856 91 -188 252 -399 401 -525 280 -236 580 -361 930 -389 459 -37 896 119
1227 439 215 208 354 435 436 710 123 413 59 907 -165 1278 -240 396 -618 665
-1061 754 -105 21 -390 34 -483 23z m375 -609 c244 -51 491 -214 625 -414 61
-90 125 -232 151 -331 30 -117 37 -304 15 -426 -72 -417 -405 -750 -822 -824
-115 -20 -339 -9 -447 24 -230 69 -445 229 -578 430 -240 363 -208 862 78
1200 239 284 616 415 978 341z"/>
<path d="M3475 7999 c-87 -18 -175 -67 -246 -138 -154 -155 -189 -368 -92
-563 127 -252 455 -341 694 -187 297 190 296 628 -2 819 -96 62 -245 91 -354
69z"/>
</g>
</svg>
